<svg width="157" height="62" viewBox="0 0 157 62" fill="none" xmlns="http://www.w3.org/2000/svg">
<path d="M30.2659 54.672C12.4022 47.734 13.4894 1.3991 20.4026 0C17.2752 0.22844 -2.8972 24.7923 0.353197 52.4799C11.0874 45.6601 30.2088 57.0309 30.2659 54.672Z" fill="#333333"/>
<path d="M45.9627 50.9112C28.9697 37.0957 28.5978 27.7789 30.8717 10.1066C25.356 15.8635 22.4045 19.1155 19.2403 28.1231C20.6885 36.7884 23.0999 42.1495 27.7204 49.3448C35.0473 47.3185 38.9855 48.3905 45.9627 50.9112Z" fill="#333333"/>
<path d="M52.441 37.5724V24.2387H56.8218L58.7131 31.0611C58.7902 31.3073 58.8674 31.5988 58.9446 31.9357C59.0218 32.2726 59.099 32.6095 59.1762 32.9464C59.2663 33.2704 59.337 33.5619 59.3885 33.8211H59.5429C59.5686 33.6008 59.6137 33.3416 59.678 33.0436C59.7423 32.7326 59.8131 32.4022 59.8903 32.0523C59.9675 31.7025 60.0511 31.3656 60.1412 31.0416L62.0324 24.2387H66.336V37.5724H63.4991V31.2554C63.4991 30.6723 63.4991 30.0892 63.4991 29.5061C63.512 28.91 63.5248 28.3917 63.5377 27.9511C63.5634 27.5106 63.5763 27.2255 63.5763 27.0959H63.4219C63.3962 27.2385 63.3319 27.5041 63.2289 27.8928C63.1389 28.2686 63.0359 28.6703 62.9201 29.0979C62.8172 29.5255 62.7207 29.8948 62.6307 30.2058L60.5657 37.5724H58.0569L55.9727 30.2253C55.8955 29.9531 55.8054 29.6357 55.7025 29.2729C55.6124 28.8971 55.5224 28.5148 55.4323 28.1261C55.3551 27.7244 55.2779 27.381 55.2007 27.0959H55.0463C55.0592 27.4458 55.0721 27.8669 55.0849 28.3593C55.0978 28.8388 55.1107 29.3376 55.1235 29.856C55.1364 30.3613 55.1428 30.8278 55.1428 31.2554V37.5724H52.441Z" fill="#333333"/>
<path d="M71.5094 37.8057C71.1749 37.8057 70.8146 37.7668 70.4286 37.689C70.0555 37.6113 69.7017 37.4752 69.3672 37.2809C69.0327 37.0735 68.7561 36.782 68.5374 36.4062C68.3315 36.0175 68.2286 35.5251 68.2286 34.929C68.2286 34.2163 68.383 33.6267 68.6918 33.1602C69.0006 32.6938 69.438 32.3309 70.0041 32.0718C70.583 31.7997 71.2714 31.6118 72.069 31.5081C72.8667 31.4044 73.748 31.3526 74.7129 31.3526V30.5946C74.7129 30.2965 74.6615 30.0374 74.5585 29.8171C74.4685 29.5968 74.3012 29.4219 74.0568 29.2923C73.8252 29.1627 73.4971 29.0979 73.0726 29.0979C72.648 29.0979 72.3006 29.1498 72.0304 29.2534C71.7731 29.3571 71.5866 29.4931 71.4708 29.6616C71.3678 29.8171 71.3164 29.992 71.3164 30.1864V30.4196H68.7111C68.6982 30.3548 68.6918 30.2965 68.6918 30.2447C68.6918 30.1799 68.6918 30.1022 68.6918 30.0115C68.6918 29.4154 68.8719 28.9036 69.2321 28.4759C69.5924 28.0354 70.1006 27.6985 70.7567 27.4652C71.4129 27.232 72.1784 27.1154 73.0533 27.1154C73.9925 27.1154 74.7773 27.2385 75.4077 27.4847C76.051 27.7309 76.5399 28.0937 76.8744 28.5731C77.2218 29.0526 77.3954 29.6551 77.3954 30.3808V35.0262C77.3954 35.2594 77.4598 35.4344 77.5884 35.551C77.7299 35.6546 77.8843 35.7065 78.0516 35.7065H78.6884V37.4752C78.5598 37.54 78.3604 37.6048 78.0902 37.6696C77.82 37.7473 77.4919 37.7862 77.106 37.7862C76.7329 37.7862 76.3983 37.7279 76.1024 37.6113C75.8194 37.5076 75.5814 37.3586 75.3884 37.1642C75.1954 36.9569 75.0603 36.7107 74.9831 36.4256H74.848C74.6293 36.6978 74.3591 36.9375 74.0375 37.1448C73.7287 37.3521 73.362 37.5141 72.9375 37.6307C72.5258 37.7473 72.0497 37.8057 71.5094 37.8057ZM72.4164 35.7648C72.7766 35.7648 73.0983 35.7129 73.3813 35.6093C73.6644 35.4927 73.9024 35.3436 74.0954 35.1622C74.2884 34.9679 74.4363 34.7346 74.5393 34.4625C74.655 34.1904 74.7129 33.8988 74.7129 33.5878V33.0242C73.9925 33.0242 73.3492 33.076 72.7831 33.1797C72.217 33.2704 71.7667 33.4324 71.4322 33.6656C71.1105 33.8988 70.9497 34.2228 70.9497 34.6374C70.9497 34.8707 71.0076 35.0715 71.1234 35.24C71.2392 35.4084 71.4064 35.538 71.6252 35.6287C71.8439 35.7194 72.1076 35.7648 72.4164 35.7648Z" fill="#333333"/>
<path d="M79.8093 37.5724V23.5195H82.4918V37.5724H79.8093Z" fill="#333333"/>
<path d="M87.4245 37.8057C87.09 37.8057 86.7298 37.7668 86.3438 37.689C85.9707 37.6113 85.6169 37.4752 85.2824 37.2809C84.9479 37.0735 84.6713 36.782 84.4525 36.4062C84.2467 36.0175 84.1438 35.5251 84.1438 34.929C84.1438 34.2163 84.2981 33.6267 84.6069 33.1602C84.9157 32.6938 85.3531 32.3309 85.9192 32.0718C86.4982 31.7997 87.1865 31.6118 87.9842 31.5081C88.7819 31.4044 89.6632 31.3526 90.6281 31.3526V30.5946C90.6281 30.2965 90.5766 30.0374 90.4737 29.8171C90.3836 29.5968 90.2164 29.4219 89.9719 29.2923C89.7404 29.1627 89.4123 29.0979 88.9877 29.0979C88.5631 29.0979 88.2158 29.1498 87.9456 29.2534C87.6883 29.3571 87.5017 29.4931 87.3859 29.6616C87.283 29.8171 87.2315 29.992 87.2315 30.1864V30.4196H84.6262C84.6134 30.3548 84.6069 30.2965 84.6069 30.2447C84.6069 30.1799 84.6069 30.1022 84.6069 30.0115C84.6069 29.4154 84.7871 28.9036 85.1473 28.4759C85.5075 28.0354 86.0157 27.6985 86.6719 27.4652C87.328 27.232 88.0935 27.1154 88.9684 27.1154C89.9076 27.1154 90.6924 27.2385 91.3228 27.4847C91.9661 27.7309 92.455 28.0937 92.7895 28.5731C93.1369 29.0526 93.3106 29.6551 93.3106 30.3808V35.0262C93.3106 35.2594 93.3749 35.4344 93.5036 35.551C93.6451 35.6546 93.7995 35.7065 93.9667 35.7065H94.6036V37.4752C94.4749 37.54 94.2755 37.6048 94.0053 37.6696C93.7352 37.7473 93.4071 37.7862 93.0211 37.7862C92.648 37.7862 92.3135 37.7279 92.0176 37.6113C91.7345 37.5076 91.4965 37.3586 91.3035 37.1642C91.1106 36.9569 90.9755 36.7107 90.8983 36.4256H90.7632C90.5445 36.6978 90.2743 36.9375 89.9526 37.1448C89.6439 37.3521 89.2772 37.5141 88.8526 37.6307C88.4409 37.7473 87.9649 37.8057 87.4245 37.8057ZM88.3316 35.7648C88.6918 35.7648 89.0134 35.7129 89.2965 35.6093C89.5795 35.4927 89.8175 35.3436 90.0105 35.1622C90.2035 34.9679 90.3515 34.7346 90.4544 34.4625C90.5702 34.1904 90.6281 33.8988 90.6281 33.5878V33.0242C89.9076 33.0242 89.2643 33.076 88.6982 33.1797C88.1321 33.2704 87.6818 33.4324 87.3473 33.6656C87.0257 33.8988 86.8649 34.2228 86.8649 34.6374C86.8649 34.8707 86.9228 35.0715 87.0385 35.24C87.1543 35.4084 87.3216 35.538 87.5403 35.6287C87.759 35.7194 88.0228 35.7648 88.3316 35.7648Z" fill="#333333"/>
<path d="M97.1911 41.2265C96.7151 41.2265 96.3162 41.1877 95.9946 41.1099C95.6858 41.0451 95.4864 40.9998 95.3963 40.9739V39.1468H96.5736C96.8952 39.1468 97.1847 39.0691 97.442 38.9136C97.6993 38.771 97.9245 38.5767 98.1174 38.3305C98.3104 38.0972 98.452 37.8445 98.542 37.5724L94.5665 27.3486H97.4034L99.1403 32.0718C99.2175 32.2921 99.3011 32.5707 99.3911 32.9076C99.4941 33.2315 99.597 33.5749 99.6999 33.9377C99.8029 34.2876 99.8865 34.5986 99.9508 34.8707H100.047C100.099 34.6893 100.157 34.4755 100.221 34.2293C100.285 33.9831 100.35 33.7304 100.414 33.4712C100.491 33.2121 100.562 32.9659 100.626 32.7326C100.703 32.4864 100.768 32.2726 100.819 32.0912L102.267 27.3486H104.968L101.514 37.0865C101.321 37.6566 101.096 38.1879 100.839 38.6803C100.594 39.1857 100.305 39.6262 99.9701 40.002C99.6356 40.3908 99.2368 40.6888 98.7736 40.8961C98.3233 41.1164 97.7958 41.2265 97.1911 41.2265Z" fill="#333333"/>
<path d="M109.873 37.5724V24.2387H112.749V35.1039H119.426V37.5724H109.873Z" fill="#333333"/>
<path d="M120.832 25.852V23.5195H123.514V25.852H120.832ZM120.832 37.5724V27.3486H123.514V37.5724H120.832Z" fill="#333333"/>
<path d="M125.764 37.5724V27.3486H127.984L128.196 28.7481H128.331C128.563 28.4112 128.839 28.1196 129.161 27.8734C129.495 27.6272 129.868 27.4393 130.28 27.3097C130.692 27.1802 131.142 27.1154 131.631 27.1154C132.3 27.1154 132.886 27.2385 133.387 27.4847C133.889 27.7309 134.275 28.1196 134.545 28.6509C134.828 29.1822 134.97 29.8754 134.97 30.7306V37.5724H132.287V31.1582C132.287 30.8343 132.249 30.5622 132.171 30.3419C132.094 30.1086 131.978 29.9208 131.824 29.7782C131.683 29.6227 131.502 29.5126 131.284 29.4478C131.065 29.383 130.821 29.3506 130.55 29.3506C130.152 29.3506 129.791 29.4478 129.47 29.6422C129.148 29.8365 128.897 30.1022 128.717 30.4391C128.537 30.776 128.447 31.1647 128.447 31.6053V37.5724H125.764Z" fill="#333333"/>
<path d="M141.774 37.8057C140.654 37.8057 139.715 37.6178 138.956 37.242C138.197 36.8532 137.625 36.2637 137.239 35.4732C136.853 34.6828 136.66 33.6786 136.66 32.4605C136.66 31.2295 136.853 30.2253 137.239 29.4478C137.625 28.6574 138.191 28.0742 138.937 27.6985C139.696 27.3097 140.622 27.1154 141.716 27.1154C142.745 27.1154 143.614 27.3033 144.321 27.679C145.029 28.0419 145.563 28.612 145.923 29.3895C146.283 30.154 146.463 31.1453 146.463 32.3633V33.0631H139.381C139.406 33.6591 139.496 34.1645 139.651 34.5791C139.818 34.9938 140.069 35.3048 140.404 35.5121C140.751 35.7065 141.208 35.8037 141.774 35.8037C142.082 35.8037 142.359 35.7648 142.604 35.687C142.861 35.6093 143.08 35.4927 143.26 35.3372C143.44 35.1817 143.581 34.9873 143.684 34.7541C143.787 34.5208 143.839 34.2552 143.839 33.9571H146.463C146.463 34.605 146.347 35.1687 146.116 35.6482C145.884 36.1276 145.563 36.5293 145.151 36.8532C144.739 37.1642 144.244 37.404 143.665 37.5724C143.099 37.7279 142.468 37.8057 141.774 37.8057ZM139.419 31.3526H143.704C143.704 30.9639 143.652 30.627 143.549 30.3419C143.459 30.0568 143.33 29.8236 143.163 29.6422C142.996 29.4607 142.79 29.3312 142.546 29.2534C142.314 29.1627 142.05 29.1174 141.754 29.1174C141.266 29.1174 140.854 29.2016 140.519 29.37C140.198 29.5255 139.947 29.7717 139.767 30.1086C139.599 30.4326 139.484 30.8472 139.419 31.3526Z" fill="#333333"/>
<path d="M152.33 37.8057C151.622 37.8057 150.985 37.7279 150.419 37.5724C149.853 37.4169 149.371 37.2031 148.972 36.931C148.573 36.6459 148.264 36.309 148.045 35.9203C147.84 35.5315 147.737 35.091 147.737 34.5986C147.737 34.5467 147.737 34.4949 147.737 34.4431C147.737 34.3912 147.743 34.3524 147.756 34.3264H150.342C150.342 34.3524 150.342 34.3783 150.342 34.4042C150.342 34.4301 150.342 34.456 150.342 34.4819C150.355 34.8059 150.458 35.0715 150.651 35.2789C150.844 35.4732 151.095 35.6158 151.403 35.7065C151.725 35.7972 152.06 35.8425 152.407 35.8425C152.716 35.8425 153.012 35.8166 153.295 35.7648C153.591 35.7 153.835 35.5898 154.028 35.4344C154.234 35.2789 154.337 35.078 154.337 34.8318C154.337 34.5208 154.208 34.2811 153.951 34.1126C153.706 33.9442 153.378 33.8081 152.967 33.7045C152.568 33.6008 152.13 33.4842 151.654 33.3546C151.217 33.2509 150.779 33.1343 150.342 33.0047C149.905 32.8622 149.506 32.6808 149.145 32.4605C148.798 32.2402 148.515 31.9551 148.296 31.6053C148.078 31.2425 147.968 30.7889 147.968 30.2447C147.968 29.7134 148.084 29.2534 148.316 28.8647C148.547 28.463 148.862 28.1326 149.261 27.8734C149.673 27.6142 150.149 27.4264 150.689 27.3097C151.243 27.1802 151.834 27.1154 152.465 27.1154C153.057 27.1154 153.61 27.1802 154.125 27.3097C154.639 27.4264 155.089 27.6078 155.475 27.854C155.861 28.0872 156.164 28.3852 156.382 28.7481C156.601 29.0979 156.711 29.4931 156.711 29.9337C156.711 30.0244 156.711 30.1086 156.711 30.1864C156.711 30.2641 156.704 30.316 156.691 30.3419H154.125V30.1864C154.125 29.9531 154.054 29.7588 153.912 29.6033C153.771 29.4348 153.565 29.3053 153.295 29.2145C153.037 29.1238 152.722 29.0785 152.349 29.0785C152.092 29.0785 151.854 29.0979 151.635 29.1368C151.429 29.1757 151.249 29.234 151.095 29.3117C150.94 29.3895 150.818 29.4867 150.728 29.6033C150.651 29.7069 150.612 29.8365 150.612 29.992C150.612 30.2123 150.702 30.3937 150.882 30.5363C151.075 30.6658 151.326 30.776 151.635 30.8667C151.944 30.9574 152.285 31.0546 152.658 31.1582C153.121 31.2878 153.603 31.4174 154.105 31.547C154.62 31.6636 155.096 31.8256 155.533 32.0329C155.971 32.2402 156.325 32.5383 156.595 32.927C156.865 33.3028 157 33.8146 157 34.4625C157 35.0845 156.878 35.6093 156.633 36.0369C156.402 36.4645 156.074 36.8079 155.649 37.0671C155.225 37.3262 154.729 37.5141 154.163 37.6307C153.597 37.7473 152.986 37.8057 152.33 37.8057Z" fill="#333333"/>
</svg>
