<svg width="235" height="83" viewBox="0 0 235 83" fill="none" xmlns="http://www.w3.org/2000/svg">
<path d="M45.3025 81.8906C18.5637 71.5466 20.1911 2.46557 30.5389 0.379639C25.8578 0.720222 -4.33657 37.3428 0.528671 78.6225C16.5957 68.4547 45.217 85.4075 45.3025 81.8906Z" fill="white"/>
<path d="M68.7977 76.2836C43.3622 55.6859 42.8057 41.7954 46.2093 15.4476C37.9533 24.0306 33.5354 28.8791 28.7992 42.3086C30.9669 55.2278 34.5763 63.2206 41.4924 73.9483C52.4593 70.9273 58.354 72.5255 68.7977 76.2836Z" fill="white"/>
<path d="M78.4945 56.3967V36.5173H85.0517L87.8826 46.6888C87.9981 47.0559 88.1137 47.4906 88.2292 47.9929C88.3448 48.4952 88.4603 48.9975 88.5759 49.4998C88.7107 49.9827 88.8166 50.4174 88.8936 50.8038H89.1247C89.1632 50.4754 89.2306 50.089 89.3269 49.6447C89.4232 49.181 89.5291 48.6884 89.6447 48.1668C89.7602 47.6451 89.8854 47.1428 90.0202 46.6599L92.8511 36.5173H99.2927V56.3967H95.0464V46.9786C95.0464 46.1093 95.0464 45.2399 95.0464 44.3706C95.0657 43.4819 95.0849 42.7091 95.1042 42.0523C95.1427 41.3954 95.162 40.9704 95.162 40.7772H94.9309C94.8924 40.9897 94.7961 41.3857 94.642 41.9653C94.5072 42.5256 94.3532 43.1245 94.1798 43.762C94.0258 44.3995 93.8813 44.9501 93.7465 45.4138L90.6557 56.3967H86.9005L83.7807 45.4428C83.6652 45.0371 83.5304 44.5637 83.3763 44.0228C83.2415 43.4626 83.1067 42.8926 82.9719 42.3131C82.8564 41.7142 82.7408 41.2022 82.6253 40.7772H82.3942C82.4134 41.2988 82.4327 41.9267 82.452 42.6608C82.4712 43.3756 82.4905 44.1194 82.5097 44.8922C82.529 45.6456 82.5386 46.3411 82.5386 46.9786V56.3967H78.4945Z" fill="white"/>
<path d="M107.036 56.7444C106.536 56.7444 105.996 56.6865 105.419 56.5706C104.86 56.4546 104.331 56.2518 103.83 55.962C103.329 55.6529 102.915 55.2182 102.588 54.658C102.28 54.0784 102.126 53.3443 102.126 52.4556C102.126 51.393 102.357 50.514 102.819 49.8185C103.281 49.1231 103.936 48.5821 104.783 48.1957C105.65 47.79 106.68 47.5099 107.874 47.3554C109.068 47.2008 110.387 47.1235 111.831 47.1235V45.9934C111.831 45.549 111.754 45.1626 111.6 44.8342C111.466 44.5058 111.215 44.245 110.849 44.0518C110.503 43.8586 110.012 43.762 109.376 43.762C108.741 43.762 108.221 43.8393 107.816 43.9938C107.431 44.1484 107.152 44.3512 106.979 44.6024C106.824 44.8342 106.747 45.095 106.747 45.3848V45.7325H102.848C102.829 45.636 102.819 45.549 102.819 45.4717C102.819 45.3751 102.819 45.2592 102.819 45.124C102.819 44.2353 103.089 43.4722 103.628 42.8347C104.167 42.1778 104.928 41.6755 105.91 41.3278C106.892 40.98 108.038 40.8062 109.347 40.8062C110.753 40.8062 111.928 40.9897 112.871 41.3568C113.834 41.7238 114.566 42.2648 115.067 42.9796C115.587 43.6944 115.847 44.5927 115.847 45.6746V52.6005C115.847 52.9482 115.943 53.209 116.136 53.3829C116.347 53.5375 116.578 53.6147 116.829 53.6147H117.782V56.2518C117.589 56.3484 117.291 56.445 116.887 56.5416C116.482 56.6575 115.991 56.7155 115.413 56.7155C114.855 56.7155 114.354 56.6285 113.911 56.4546C113.488 56.3001 113.131 56.0779 112.842 55.7881C112.554 55.479 112.351 55.112 112.236 54.687H112.034C111.706 55.0927 111.302 55.4501 110.82 55.7592C110.358 56.0683 109.809 56.3098 109.174 56.4836C108.558 56.6575 107.845 56.7444 107.036 56.7444ZM108.394 53.7017C108.933 53.7017 109.415 53.6244 109.838 53.4698C110.262 53.296 110.618 53.0738 110.907 52.8033C111.196 52.5136 111.417 52.1658 111.571 51.7601C111.745 51.3544 111.831 50.9197 111.831 50.4561V49.6157C110.753 49.6157 109.79 49.693 108.943 49.8475C108.095 49.9827 107.421 50.2242 106.921 50.572C106.439 50.9197 106.199 51.4027 106.199 52.0209C106.199 52.3687 106.285 52.6681 106.459 52.9193C106.632 53.1704 106.882 53.3636 107.21 53.4988C107.537 53.6341 107.932 53.7017 108.394 53.7017Z" fill="white"/>
<path d="M119.46 56.3967V35.4451H123.475V56.3967H119.46Z" fill="white"/>
<path d="M130.858 56.7444C130.358 56.7444 129.818 56.6865 129.241 56.5706C128.682 56.4546 128.153 56.2518 127.652 55.962C127.151 55.6529 126.737 55.2182 126.41 54.658C126.102 54.0784 125.948 53.3443 125.948 52.4556C125.948 51.393 126.179 50.514 126.641 49.8185C127.103 49.1231 127.758 48.5821 128.605 48.1957C129.472 47.79 130.502 47.5099 131.696 47.3554C132.89 47.2008 134.209 47.1235 135.654 47.1235V45.9934C135.654 45.549 135.576 45.1626 135.422 44.8342C135.288 44.5058 135.037 44.245 134.671 44.0518C134.325 43.8586 133.834 43.762 133.198 43.762C132.563 43.762 132.043 43.8393 131.638 43.9938C131.253 44.1484 130.974 44.3512 130.801 44.6024C130.647 44.8342 130.569 45.095 130.569 45.3848V45.7325H126.67C126.651 45.636 126.641 45.549 126.641 45.4717C126.641 45.3751 126.641 45.2592 126.641 45.124C126.641 44.2353 126.911 43.4722 127.45 42.8347C127.989 42.1778 128.75 41.6755 129.732 41.3278C130.714 40.98 131.86 40.8062 133.169 40.8062C134.575 40.8062 135.75 40.9897 136.693 41.3568C137.656 41.7238 138.388 42.2648 138.889 42.9796C139.409 43.6944 139.669 44.5927 139.669 45.6746V52.6005C139.669 52.9482 139.765 53.209 139.958 53.3829C140.169 53.5375 140.401 53.6147 140.651 53.6147H141.604V56.2518C141.412 56.3484 141.113 56.445 140.709 56.5416C140.304 56.6575 139.813 56.7155 139.235 56.7155C138.677 56.7155 138.176 56.6285 137.733 56.4546C137.31 56.3001 136.953 56.0779 136.665 55.7881C136.376 55.479 136.173 55.112 136.058 54.687H135.856C135.528 55.0927 135.124 55.4501 134.642 55.7592C134.18 56.0683 133.631 56.3098 132.996 56.4836C132.38 56.6575 131.667 56.7444 130.858 56.7444ZM132.216 53.7017C132.755 53.7017 133.237 53.6244 133.66 53.4698C134.084 53.296 134.44 53.0738 134.729 52.8033C135.018 52.5136 135.239 52.1658 135.394 51.7601C135.567 51.3544 135.654 50.9197 135.654 50.4561V49.6157C134.575 49.6157 133.612 49.693 132.765 49.8475C131.918 49.9827 131.244 50.2242 130.743 50.572C130.261 50.9197 130.021 51.4027 130.021 52.0209C130.021 52.3687 130.107 52.6681 130.281 52.9193C130.454 53.1704 130.704 53.3636 131.032 53.4988C131.359 53.6341 131.754 53.7017 132.216 53.7017Z" fill="white"/>
<path d="M145.477 61.8447C144.765 61.8447 144.168 61.7867 143.686 61.6708C143.224 61.5742 142.926 61.5066 142.791 61.468V58.744H144.553C145.034 58.744 145.468 58.628 145.853 58.3962C146.238 58.1837 146.575 57.8939 146.864 57.5269C147.153 57.1791 147.364 56.8024 147.499 56.3967L141.549 41.1539H145.795L148.395 48.1957C148.51 48.5242 148.635 48.9395 148.77 49.4418C148.924 49.9248 149.078 50.4367 149.232 50.9777C149.386 51.4993 149.512 51.963 149.608 52.3687H149.752C149.829 52.0982 149.916 51.7794 150.012 51.4124C150.109 51.0453 150.205 50.6686 150.301 50.2822C150.417 49.8958 150.523 49.5288 150.619 49.181C150.734 48.8139 150.831 48.4952 150.908 48.2247L153.074 41.1539H157.118L151.948 55.6722C151.659 56.5223 151.322 57.3143 150.937 58.0485C150.571 58.8019 150.137 59.4588 149.637 60.019C149.136 60.5986 148.539 61.0429 147.846 61.352C147.172 61.6805 146.382 61.8447 145.477 61.8447Z" fill="white"/>
<path d="M164.46 56.3967V36.5173H168.764V52.7164H178.759V56.3967H164.46Z" fill="white"/>
<path d="M180.863 38.9226V35.4451H184.878V38.9226H180.863ZM180.863 56.3967V41.1539H184.878V56.3967H180.863Z" fill="white"/>
<path d="M188.246 56.3967V41.1539H191.568L191.886 43.2404H192.088C192.434 42.7381 192.849 42.3034 193.33 41.9363C193.831 41.5693 194.389 41.2892 195.005 41.096C195.622 40.9028 196.296 40.8062 197.027 40.8062C198.029 40.8062 198.905 40.9897 199.656 41.3568C200.407 41.7238 200.985 42.3034 201.389 43.0955C201.813 43.8876 202.025 44.9211 202.025 46.1962V56.3967H198.01V46.8337C198.01 46.3508 197.952 45.9451 197.836 45.6166C197.721 45.2689 197.547 44.9888 197.316 44.7763C197.104 44.5444 196.835 44.3802 196.507 44.2836C196.18 44.187 195.814 44.1387 195.41 44.1387C194.813 44.1387 194.274 44.2836 193.792 44.5734C193.311 44.8632 192.935 45.2592 192.666 45.7615C192.396 46.2638 192.261 46.8434 192.261 47.5002V56.3967H188.246Z" fill="white"/>
<path d="M212.209 56.7444C210.534 56.7444 209.128 56.4643 207.992 55.9041C206.855 55.3245 205.998 54.4455 205.421 53.267C204.843 52.0885 204.554 50.5913 204.554 48.7753C204.554 46.94 204.843 45.4428 205.421 44.2836C205.998 43.1052 206.846 42.2358 207.963 41.6755C209.099 41.096 210.485 40.8062 212.122 40.8062C213.663 40.8062 214.963 41.0863 216.022 41.6466C217.081 42.1875 217.88 43.0375 218.42 44.1967C218.959 45.3365 219.228 46.8144 219.228 48.6304V49.6736H208.627C208.666 50.5623 208.8 51.3158 209.032 51.934C209.282 52.5522 209.657 53.0159 210.158 53.325C210.678 53.6147 211.362 53.7596 212.209 53.7596C212.671 53.7596 213.085 53.7017 213.451 53.5858C213.836 53.4698 214.164 53.296 214.433 53.0641C214.703 52.8323 214.915 52.5425 215.069 52.1948C215.223 51.847 215.3 51.451 215.3 51.0067H219.228C219.228 51.9726 219.055 52.813 218.708 53.5278C218.362 54.2426 217.88 54.8415 217.264 55.3245C216.648 55.7881 215.907 56.1455 215.04 56.3967C214.193 56.6285 213.249 56.7444 212.209 56.7444ZM208.685 47.1235H215.098C215.098 46.5439 215.021 46.0417 214.867 45.6166C214.732 45.1916 214.539 44.8439 214.289 44.5734C214.039 44.3029 213.73 44.1097 213.364 43.9938C213.018 43.8586 212.623 43.791 212.18 43.791C211.448 43.791 210.832 43.9165 210.331 44.1677C209.85 44.3995 209.474 44.7666 209.205 45.2689C208.955 45.7519 208.781 46.3701 208.685 47.1235Z" fill="white"/>
<path d="M228.009 56.7444C226.95 56.7444 225.997 56.6285 225.15 56.3967C224.302 56.1649 223.58 55.8461 222.983 55.4404C222.386 55.0154 221.924 54.5131 221.597 53.9335C221.289 53.3539 221.135 52.6971 221.135 51.963C221.135 51.8857 221.135 51.8084 221.135 51.7311C221.135 51.6539 221.144 51.5959 221.163 51.5573H225.034C225.034 51.5959 225.034 51.6345 225.034 51.6732C225.034 51.7118 225.034 51.7505 225.034 51.7891C225.053 52.2721 225.207 52.6681 225.496 52.9772C225.785 53.267 226.161 53.4795 226.623 53.6147C227.104 53.75 227.605 53.8176 228.125 53.8176C228.587 53.8176 229.03 53.779 229.454 53.7017C229.897 53.6051 230.263 53.4409 230.551 53.209C230.86 52.9772 231.014 52.6778 231.014 52.3107C231.014 51.847 230.821 51.4896 230.436 51.2385C230.07 50.9873 229.579 50.7845 228.963 50.6299C228.366 50.4754 227.711 50.3015 226.998 50.1083C226.344 49.9538 225.689 49.7799 225.034 49.5867C224.379 49.3742 223.782 49.1037 223.243 48.7753C222.723 48.4469 222.3 48.0219 221.972 47.5002C221.645 46.9593 221.481 46.2831 221.481 45.4717C221.481 44.6797 221.654 43.9938 222.001 43.4143C222.348 42.8154 222.82 42.3227 223.417 41.9363C224.033 41.55 224.745 41.2698 225.554 41.096C226.382 40.9028 227.268 40.8062 228.212 40.8062C229.098 40.8062 229.926 40.9028 230.696 41.096C231.466 41.2698 232.14 41.5403 232.718 41.9074C233.296 42.2551 233.748 42.6994 234.076 43.2404C234.403 43.762 234.567 44.3512 234.567 45.0081C234.567 45.1433 234.567 45.2689 234.567 45.3848C234.567 45.5007 234.557 45.578 234.538 45.6166H230.696V45.3848C230.696 45.0371 230.59 44.7473 230.378 44.5154C230.166 44.2643 229.858 44.0711 229.454 43.9359C229.069 43.8006 228.597 43.733 228.038 43.733C227.653 43.733 227.297 43.762 226.97 43.82C226.661 43.8779 226.392 43.9648 226.161 44.0808C225.93 44.1967 225.747 44.3416 225.612 44.5154C225.496 44.67 225.439 44.8632 225.439 45.095C225.439 45.4234 225.573 45.6939 225.843 45.9064C226.132 46.0996 226.507 46.2638 226.97 46.3991C227.432 46.5343 227.942 46.6792 228.501 46.8337C229.194 47.0269 229.916 47.2201 230.667 47.4133C231.437 47.5872 232.15 47.8287 232.805 48.1378C233.459 48.4469 233.989 48.8912 234.393 49.4708C234.798 50.031 235 50.7942 235 51.7601C235 52.6874 234.817 53.4698 234.451 54.1074C234.105 54.7449 233.613 55.2569 232.978 55.6432C232.342 56.0296 231.601 56.3098 230.754 56.4836C229.906 56.6575 228.992 56.7444 228.009 56.7444Z" fill="white"/>
</svg>
