<svg width="32" height="32" viewBox="0 0 32 32" fill="none" xmlns="http://www.w3.org/2000/svg">
<path d="M20.6978 31.6774H11.9478C4.02909 31.6774 0.645752 28.2941 0.645752 20.3753V11.6253C0.645752 3.70658 4.02909 0.323242 11.9478 0.323242H20.6978C28.6166 0.323242 31.9999 3.70658 31.9999 11.6253V20.3753C31.9999 28.2941 28.6166 31.6774 20.6978 31.6774ZM11.9478 2.51074C5.22492 2.51074 2.83325 4.90241 2.83325 11.6253V20.3753C2.83325 27.0982 5.22492 29.4899 11.9478 29.4899H20.6978C27.4207 29.4899 29.8124 27.0982 29.8124 20.3753V11.6253C29.8124 4.90241 27.4207 2.51074 20.6978 2.51074H11.9478Z" fill="#292D32"/>
<path d="M14.4854 22.2422C14.2084 22.2422 13.9313 22.1401 13.7125 21.9214C13.2896 21.4985 13.2896 20.7985 13.7125 20.3756L18.0875 16.0006L13.7125 11.6256C13.2896 11.2026 13.2896 10.5026 13.7125 10.0797C14.1354 9.6568 14.8355 9.6568 15.2584 10.0797L20.4063 15.2276C20.8292 15.6506 20.8292 16.3506 20.4063 16.7735L15.2584 21.9214C15.0396 22.1401 14.7625 22.2422 14.4854 22.2422Z" fill="#292D32"/>
</svg>
