<svg width="20" height="22" viewBox="0 0 20 22" fill="none" xmlns="http://www.w3.org/2000/svg">
<path d="M7.77002 20.94C7.54002 20.94 7.32001 20.84 7.17001 20.64L6.16 19.29C5.95 19.01 5.67003 18.85 5.37003 18.83C5.07003 18.81 4.77 18.95 4.53 19.2C3.08 20.75 1.98001 20.62 1.45001 20.42C0.910012 20.21 0 19.52 0 17.3V6.04001C0 1.60001 1.28 0.25 5.47 0.25H13.02C17.21 0.25 18.49 1.60001 18.49 6.04001V10.3C18.49 10.71 18.15 11.05 17.74 11.05C17.33 11.05 16.99 10.71 16.99 10.3V6.04001C16.99 2.43001 16.36 1.75 13.02 1.75H5.47C2.13 1.75 1.5 2.43001 1.5 6.04001V17.3C1.5 18.35 1.76 18.93 2 19.02C2.18 19.09 2.67002 18.99 3.43002 18.18C3.98002 17.6 4.70001 17.29 5.45001 17.33C6.19001 17.37 6.89002 17.76 7.36002 18.39L8.38 19.74C8.63 20.07 8.56001 20.54 8.23001 20.79C8.08001 20.9 7.92002 20.94 7.77002 20.94Z" fill="#292D32"/>
<path d="M15.43 21.15C13.25 21.15 11.48 19.38 11.48 17.2C11.48 15.02 13.25 13.25 15.43 13.25C17.61 13.25 19.38 15.02 19.38 17.2C19.38 19.38 17.61 21.15 15.43 21.15ZM15.43 14.75C14.08 14.75 12.98 15.85 12.98 17.2C12.98 18.55 14.08 19.65 15.43 19.65C16.78 19.65 17.88 18.55 17.88 17.2C17.88 15.85 16.78 14.75 15.43 14.75Z" fill="#292D32"/>
<path d="M19.2299 21.75C19.0399 21.75 18.8499 21.68 18.6999 21.53L17.6999 20.53C17.4099 20.24 17.4099 19.76 17.6999 19.47C17.9899 19.18 18.4699 19.18 18.7599 19.47L19.7599 20.47C20.0499 20.76 20.0499 21.24 19.7599 21.53C19.6099 21.68 19.4199 21.75 19.2299 21.75Z" fill="#292D32"/>
<path d="M13.23 6.75H5.22998C4.81998 6.75 4.47998 6.41 4.47998 6C4.47998 5.59 4.81998 5.25 5.22998 5.25H13.23C13.64 5.25 13.98 5.59 13.98 6C13.98 6.41 13.64 6.75 13.23 6.75Z" fill="#292D32"/>
<path d="M12.23 10.75H6.22998C5.81998 10.75 5.47998 10.41 5.47998 10C5.47998 9.59 5.81998 9.25 6.22998 9.25H12.23C12.64 9.25 12.98 9.59 12.98 10C12.98 10.41 12.64 10.75 12.23 10.75Z" fill="#292D32"/>
</svg>
