<svg width="22" height="22" viewBox="0 0 22 22" fill="none" xmlns="http://www.w3.org/2000/svg">
<path d="M11.25 21.75C5.32 21.75 0.5 16.93 0.5 11C0.5 5.07 5.32 0.25 11.25 0.25C17.18 0.25 22 5.07 22 11C22 11.41 21.66 11.75 21.25 11.75C20.84 11.75 20.5 11.41 20.5 11C20.5 5.9 16.35 1.75 11.25 1.75C6.15 1.75 2 5.9 2 11C2 16.1 6.15 20.25 11.25 20.25C11.66 20.25 12 20.59 12 21C12 21.41 11.66 21.75 11.25 21.75Z" fill="#292D32"/>
<path d="M8.25024 20.75H7.25024C6.84024 20.75 6.50024 20.41 6.50024 20C6.50024 19.59 6.82023 19.26 7.23023 19.25C5.66023 13.89 5.66023 8.11 7.23023 2.75C6.83023 2.74 6.50024 2.41 6.50024 2C6.50024 1.59 6.84024 1.25 7.25024 1.25H8.25024C8.49024 1.25 8.72024 1.37 8.86024 1.56C9.00024 1.76 9.04025 2.00999 8.96025 2.23999C7.08025 7.88999 7.08025 14.12 8.96025 19.77C9.04025 20 9.00024 20.25 8.86024 20.45C8.72024 20.65 8.49024 20.75 8.25024 20.75Z" fill="#292D32"/>
<path d="M15.71 11.75C15.3 11.75 14.96 11.41 14.96 11C14.96 8.02002 14.4799 5.07001 13.5399 2.24002C13.4099 1.85002 13.6199 1.42 14.0099 1.29C14.3999 1.16 14.83 1.37003 14.96 1.76003C15.95 4.74003 16.46 7.85002 16.46 11C16.46 11.41 16.12 11.75 15.71 11.75Z" fill="#292D32"/>
<path d="M11.25 16.21C8.45 16.21 5.68 15.81 3 15.02C2.99 15.42 2.66 15.75 2.25 15.75C1.84 15.75 1.5 15.41 1.5 15V14C1.5 13.76 1.62 13.53 1.81 13.39C2.01 13.25 2.26001 13.21 2.49001 13.29C5.32001 14.23 8.27 14.71 11.25 14.71C11.66 14.71 12 15.05 12 15.46C12 15.87 11.66 16.21 11.25 16.21Z" fill="#292D32"/>
<path d="M20.2502 8.75001C20.1702 8.75001 20.0902 8.74003 20.0102 8.71003C14.3602 6.83003 8.13018 6.83003 2.48018 8.71003C2.09018 8.84003 1.66018 8.63 1.53018 8.24C1.40018 7.85 1.61018 7.41999 2.00018 7.28999C7.96018 5.29999 14.5202 5.29999 20.4702 7.28999C20.8602 7.41999 21.0702 7.85 20.9402 8.24C20.8602 8.55 20.5602 8.75001 20.2502 8.75001Z" fill="#292D32"/>
<path d="M17.45 21.15C15.27 21.15 13.5 19.38 13.5 17.2C13.5 15.02 15.27 13.25 17.45 13.25C19.63 13.25 21.4 15.02 21.4 17.2C21.4 19.38 19.63 21.15 17.45 21.15ZM17.45 14.75C16.1 14.75 15 15.85 15 17.2C15 18.55 16.1 19.65 17.45 19.65C18.8 19.65 19.9 18.55 19.9 17.2C19.9 15.85 18.8 14.75 17.45 14.75Z" fill="#292D32"/>
<path d="M21.2499 21.75C21.0599 21.75 20.8699 21.68 20.7199 21.53L19.7199 20.53C19.4299 20.24 19.4299 19.7599 19.7199 19.4699C20.0099 19.1799 20.4899 19.1799 20.7799 19.4699L21.7799 20.4699C22.0699 20.7599 22.0699 21.24 21.7799 21.53C21.6299 21.68 21.4399 21.75 21.2499 21.75Z" fill="#292D32"/>
</svg>
