<svg width="22" height="22" viewBox="0 0 22 22" fill="none" xmlns="http://www.w3.org/2000/svg">
<path d="M11.0537 19.25C6.50371 19.25 2.80371 15.55 2.80371 11C2.80371 6.45 6.50371 2.75 11.0537 2.75C15.6037 2.75 19.3037 6.45 19.3037 11C19.3037 15.55 15.6037 19.25 11.0537 19.25ZM11.0537 4.25C7.33371 4.25 4.30371 7.28 4.30371 11C4.30371 14.72 7.33371 17.75 11.0537 17.75C14.7737 17.75 17.8037 14.72 17.8037 11C17.8037 7.28 14.7737 4.25 11.0537 4.25Z" fill="#292D32"/>
<path d="M11.0537 14.75C8.98371 14.75 7.30371 13.07 7.30371 11C7.30371 8.93 8.98371 7.25 11.0537 7.25C13.1237 7.25 14.8037 8.93 14.8037 11C14.8037 13.07 13.1237 14.75 11.0537 14.75ZM11.0537 8.75C9.81371 8.75 8.80371 9.76 8.80371 11C8.80371 12.24 9.81371 13.25 11.0537 13.25C12.2937 13.25 13.3037 12.24 13.3037 11C13.3037 9.76 12.2937 8.75 11.0537 8.75Z" fill="#292D32"/>
<path d="M11.0537 3.75C10.6437 3.75 10.3037 3.41 10.3037 3V1C10.3037 0.59 10.6437 0.25 11.0537 0.25C11.4637 0.25 11.8037 0.59 11.8037 1V3C11.8037 3.41 11.4637 3.75 11.0537 3.75Z" fill="#292D32"/>
<path d="M3.05371 11.75H1.05371C0.643711 11.75 0.303711 11.41 0.303711 11C0.303711 10.59 0.643711 10.25 1.05371 10.25H3.05371C3.46371 10.25 3.80371 10.59 3.80371 11C3.80371 11.41 3.46371 11.75 3.05371 11.75Z" fill="#292D32"/>
<path d="M11.0537 21.75C10.6437 21.75 10.3037 21.41 10.3037 21V19C10.3037 18.59 10.6437 18.25 11.0537 18.25C11.4637 18.25 11.8037 18.59 11.8037 19V21C11.8037 21.41 11.4637 21.75 11.0537 21.75Z" fill="#292D32"/>
<path d="M21.0537 11.75H19.0537C18.6437 11.75 18.3037 11.41 18.3037 11C18.3037 10.59 18.6437 10.25 19.0537 10.25H21.0537C21.4637 10.25 21.8037 10.59 21.8037 11C21.8037 11.41 21.4637 11.75 21.0537 11.75Z" fill="#292D32"/>
</svg>
