<svg width="32" height="30" viewBox="0 0 32 30" fill="none" xmlns="http://www.w3.org/2000/svg">
<path d="M21.8481 30C21.5297 30 21.2114 29.8801 20.96 29.623C20.4741 29.1261 20.4741 28.3036 20.96 27.8067L29.3551 19.2218C29.8411 18.7248 30.6454 18.7248 31.1314 19.2218C31.6173 19.7187 31.6173 20.5412 31.1314 21.0381L22.7362 29.623C22.4849 29.8629 22.1665 30 21.8481 30Z" fill="white"/>
<path d="M30.2432 21.398H1.75676C1.06973 21.398 0.5 20.8154 0.5 20.1128C0.5 19.4103 1.06973 18.8276 1.75676 18.8276H30.2432C30.9303 18.8276 31.5 19.4103 31.5 20.1128C31.5 20.8154 30.9303 21.398 30.2432 21.398Z" fill="white"/>
<path d="M1.75676 11.1509C1.43838 11.1509 1.12 11.031 0.868649 10.774C0.382703 10.277 0.382703 9.45452 0.868649 8.95759L9.26378 0.372697C9.74973 -0.124232 10.5541 -0.124232 11.04 0.372697C11.5259 0.869627 11.5259 1.69213 11.04 2.18906L2.64487 10.774C2.41027 11.0139 2.07514 11.1509 1.75676 11.1509Z" fill="white"/>
<path d="M30.2432 11.1509H1.75676C1.06973 11.1509 0.5 10.5683 0.5 9.86577C0.5 9.16322 1.06973 8.58061 1.75676 8.58061H30.2432C30.9303 8.58061 31.5 9.16322 31.5 9.86577C31.5 10.5683 30.9303 11.1509 30.2432 11.1509Z" fill="white"/>
</svg>
