<svg width="22" height="22" viewBox="0 0 22 22" fill="none" xmlns="http://www.w3.org/2000/svg">
<path d="M9.83929 19.7305C4.45929 19.7305 0.0892944 15.3605 0.0892944 9.98047C0.0892944 4.60047 4.45929 0.230469 9.83929 0.230469C15.2193 0.230469 19.5893 4.60047 19.5893 9.98047C19.5893 15.3605 15.2193 19.7305 9.83929 19.7305ZM9.83929 1.73047C5.28929 1.73047 1.58929 5.43047 1.58929 9.98047C1.58929 14.5305 5.28929 18.2305 9.83929 18.2305C14.3893 18.2305 18.0893 14.5305 18.0893 9.98047C18.0893 5.43047 14.3893 1.73047 9.83929 1.73047Z" fill="#292D32"/>
<path d="M18.9993 21.7705C18.9193 21.7705 18.8393 21.7605 18.7693 21.7505C18.2993 21.6905 17.4493 21.3705 16.9693 19.9405C16.7193 19.1905 16.8093 18.4405 17.2193 17.8705C17.6293 17.3005 18.3193 16.9805 19.1093 16.9805C20.1293 16.9805 20.9293 17.3705 21.2893 18.0605C21.6493 18.7505 21.5493 19.6305 20.9793 20.4805C20.2693 21.5505 19.4993 21.7705 18.9993 21.7705ZM18.3993 19.4705C18.5693 19.9905 18.8093 20.2505 18.9693 20.2705C19.1293 20.2905 19.4293 20.1005 19.7393 19.6505C20.0293 19.2205 20.0493 18.9105 19.9793 18.7705C19.9093 18.6305 19.6293 18.4805 19.1093 18.4805C18.7993 18.4805 18.5693 18.5805 18.4393 18.7505C18.3193 18.9205 18.2993 19.1805 18.3993 19.4705Z" fill="#292D32"/>
</svg>
