<svg width="21" height="22" viewBox="0 0 21 22" fill="none" xmlns="http://www.w3.org/2000/svg">
<path d="M5.75 4.75C5.34 4.75 5 4.41 5 4V1C5 0.59 5.34 0.25 5.75 0.25C6.16 0.25 6.5 0.59 6.5 1V4C6.5 4.41 6.16 4.75 5.75 4.75Z" fill="#292D32"/>
<path d="M13.75 4.75C13.34 4.75 13 4.41 13 4V1C13 0.59 13.34 0.25 13.75 0.25C14.16 0.25 14.5 0.59 14.5 1V4C14.5 4.41 14.16 4.75 13.75 4.75Z" fill="#292D32"/>
<path d="M15.95 21.15C13.77 21.15 12 19.38 12 17.2C12 15.02 13.77 13.25 15.95 13.25C18.13 13.25 19.9 15.02 19.9 17.2C19.9 19.38 18.13 21.15 15.95 21.15ZM15.95 14.75C14.6 14.75 13.5 15.85 13.5 17.2C13.5 18.55 14.6 19.65 15.95 19.65C17.3 19.65 18.4 18.55 18.4 17.2C18.4 15.85 17.3 14.75 15.95 14.75Z" fill="#292D32"/>
<path d="M19.7499 21.75C19.5599 21.75 19.3699 21.68 19.2199 21.53L18.2199 20.53C17.9299 20.24 17.9299 19.76 18.2199 19.47C18.5099 19.18 18.9899 19.18 19.2799 19.47L20.2799 20.47C20.5699 20.76 20.5699 21.24 20.2799 21.53C20.1299 21.68 19.9399 21.75 19.7499 21.75Z" fill="#292D32"/>
<path d="M6.25 13.5C6.12 13.5 5.99 13.47 5.87 13.42C5.74 13.37 5.62999 13.3 5.53999 13.21C5.49999 13.16 5.45 13.11 5.42 13.06C5.38 13 5.35 12.94 5.33 12.88C5.3 12.82 5.28 12.76 5.27 12.7C5.26 12.63 5.25 12.56 5.25 12.5C5.25 12.24 5.35999 11.98 5.53999 11.79C5.62999 11.7 5.74 11.63 5.87 11.58C6.23 11.42 6.68001 11.51 6.96001 11.79C7.14001 11.98 7.25 12.24 7.25 12.5C7.25 12.56 7.24 12.63 7.23 12.7C7.22 12.76 7.2 12.82 7.17 12.88C7.15 12.94 7.12 13 7.08 13.06C7.04 13.11 7.00001 13.16 6.96001 13.21C6.77001 13.39 6.51 13.5 6.25 13.5Z" fill="#292D32"/>
<path d="M9.75 13.5C9.49 13.5 9.22999 13.39 9.03999 13.21C8.85999 13.02 8.75 12.77 8.75 12.5C8.75 12.37 8.78 12.24 8.83 12.12C8.88 12 8.94999 11.89 9.03999 11.79C9.40999 11.42 10.08 11.42 10.46 11.79C10.64 11.98 10.75 12.24 10.75 12.5C10.75 12.56 10.74 12.63 10.73 12.7C10.72 12.76 10.7 12.82 10.67 12.88C10.65 12.94 10.62 13 10.58 13.06C10.54 13.11 10.5 13.16 10.46 13.21C10.27 13.39 10.01 13.5 9.75 13.5Z" fill="#292D32"/>
<path d="M6.25 17C5.99 17 5.72999 16.89 5.53999 16.71C5.35999 16.52 5.25 16.26 5.25 16C5.25 15.87 5.28 15.74 5.33 15.62C5.38 15.49 5.44999 15.38 5.53999 15.29C5.90999 14.92 6.59001 14.92 6.96001 15.29C7.14001 15.48 7.25 15.74 7.25 16C7.25 16.26 7.14001 16.52 6.96001 16.71C6.77001 16.89 6.51 17 6.25 17Z" fill="#292D32"/>
<path d="M18.25 8.83997H1.25C0.84 8.83997 0.5 8.49997 0.5 8.08997C0.5 7.67997 0.84 7.33997 1.25 7.33997H18.25C18.66 7.33997 19 7.67997 19 8.08997C19 8.49997 18.66 8.83997 18.25 8.83997Z" fill="#292D32"/>
<path d="M11.12 21.75H5.75C2.1 21.75 0 19.65 0 16V7.5C0 3.85 2.1 1.75 5.75 1.75H13.75C17.4 1.75 19.5 3.85 19.5 7.5V12C19.5 12.41 19.16 12.75 18.75 12.75C18.34 12.75 18 12.41 18 12V7.5C18 4.64 16.61 3.25 13.75 3.25H5.75C2.89 3.25 1.5 4.64 1.5 7.5V16C1.5 18.86 2.89 20.25 5.75 20.25H11.12C11.53 20.25 11.87 20.59 11.87 21C11.87 21.41 11.53 21.75 11.12 21.75Z" fill="#292D32"/>
</svg>
