<svg width="20" height="22" viewBox="0 0 20 22" fill="none" xmlns="http://www.w3.org/2000/svg">
<path d="M10.1009 21.75C4.86089 21.75 0.600891 17.49 0.600891 12.25C0.600891 7.01 4.86089 2.75 10.1009 2.75C15.3409 2.75 19.6009 7.01 19.6009 12.25C19.6009 17.49 15.3409 21.75 10.1009 21.75ZM10.1009 4.25C5.69089 4.25 2.10089 7.84 2.10089 12.25C2.10089 16.66 5.69089 20.25 10.1009 20.25C14.5109 20.25 18.1009 16.66 18.1009 12.25C18.1009 7.84 14.5109 4.25 10.1009 4.25Z" fill="#292D32"/>
<path d="M10.1009 12.75C9.69089 12.75 9.35089 12.41 9.35089 12V7C9.35089 6.59 9.69089 6.25 10.1009 6.25C10.5109 6.25 10.8509 6.59 10.8509 7V12C10.8509 12.41 10.5109 12.75 10.1009 12.75Z" fill="#292D32"/>
<path d="M13.1009 1.75H7.10089C6.69089 1.75 6.35089 1.41 6.35089 1C6.35089 0.59 6.69089 0.25 7.10089 0.25H13.1009C13.5109 0.25 13.8509 0.59 13.8509 1C13.8509 1.41 13.5109 1.75 13.1009 1.75Z" fill="#292D32"/>
</svg>
