<svg width="15" height="22" viewBox="0 0 15 22" fill="none" xmlns="http://www.w3.org/2000/svg">
<path d="M10.4986 21.75H4.01861C2.12861 21.75 0.748612 20.96 0.218612 19.6C-0.331388 18.18 0.178612 16.42 1.49861 15.23L6.13861 11L1.49861 6.77C0.178612 5.58 -0.331388 3.82 0.218612 2.4C0.748612 1.03 2.12861 0.25 4.01861 0.25H10.4986C12.3886 0.25 13.7686 1.04 14.2986 2.4C14.8486 3.82 14.3386 5.58 13.0186 6.77L8.37861 11L13.0286 15.23C14.3386 16.42 14.8586 18.18 14.3086 19.6C13.7686 20.96 12.3886 21.75 10.4986 21.75ZM7.25861 12.01L2.50861 16.33C1.66861 17.1 1.29861 18.22 1.61861 19.05C1.91861 19.82 2.76861 20.25 4.01861 20.25H10.4986C11.7486 20.25 12.5986 19.83 12.8986 19.05C13.2186 18.22 12.8586 17.1 12.0086 16.33L7.25861 12.01ZM4.01861 1.75C2.76861 1.75 1.91861 2.17 1.61861 2.95C1.29861 3.78 1.65861 4.9 2.50861 5.67L7.25861 9.99L12.0086 5.67C12.8486 4.9 13.2186 3.78 12.8986 2.95C12.5986 2.18 11.7486 1.75 10.4986 1.75H4.01861Z" fill="#292D32"/>
</svg>
