<svg width="18" height="10" viewBox="0 0 18 10" fill="none" xmlns="http://www.w3.org/2000/svg">
<path d="M16.5875 9.0292C16.3975 9.0292 16.2075 8.9592 16.0575 8.8092L9.5375 2.2892C9.0575 1.8092 8.2775 1.8092 7.7975 2.2892L1.2775 8.8092C0.9875 9.0992 0.5075 9.0992 0.2175 8.8092C-0.0725 8.5192 -0.0725 8.0392 0.2175 7.7492L6.7375 1.2292C7.7975 0.169204 9.5275 0.169204 10.5975 1.2292L17.1175 7.7492C17.4075 8.0392 17.4075 8.5192 17.1175 8.8092C16.9675 8.9492 16.7775 9.0292 16.5875 9.0292Z" fill="#878787"/>
<path d="M16.5875 9.0292C16.3975 9.0292 16.2075 8.9592 16.0575 8.8092L9.5375 2.2892C9.0575 1.8092 8.2775 1.8092 7.7975 2.2892L1.2775 8.8092C0.9875 9.0992 0.5075 9.0992 0.2175 8.8092C-0.0725 8.5192 -0.0725 8.0392 0.2175 7.7492L6.7375 1.2292C7.7975 0.169204 9.5275 0.169204 10.5975 1.2292L17.1175 7.7492C17.4075 8.0392 17.4075 8.5192 17.1175 8.8092C16.9675 8.9492 16.7775 9.0292 16.5875 9.0292Z" fill="black" fill-opacity="0.2"/>
<path d="M16.5875 9.0292C16.3975 9.0292 16.2075 8.9592 16.0575 8.8092L9.5375 2.2892C9.0575 1.8092 8.2775 1.8092 7.7975 2.2892L1.2775 8.8092C0.9875 9.0992 0.5075 9.0992 0.2175 8.8092C-0.0725 8.5192 -0.0725 8.0392 0.2175 7.7492L6.7375 1.2292C7.7975 0.169204 9.5275 0.169204 10.5975 1.2292L17.1175 7.7492C17.4075 8.0392 17.4075 8.5192 17.1175 8.8092C16.9675 8.9492 16.7775 9.0292 16.5875 9.0292Z" fill="black" fill-opacity="0.2"/>
<path d="M16.5875 9.0292C16.3975 9.0292 16.2075 8.9592 16.0575 8.8092L9.5375 2.2892C9.0575 1.8092 8.2775 1.8092 7.7975 2.2892L1.2775 8.8092C0.9875 9.0992 0.5075 9.0992 0.2175 8.8092C-0.0725 8.5192 -0.0725 8.0392 0.2175 7.7492L6.7375 1.2292C7.7975 0.169204 9.5275 0.169204 10.5975 1.2292L17.1175 7.7492C17.4075 8.0392 17.4075 8.5192 17.1175 8.8092C16.9675 8.9492 16.7775 9.0292 16.5875 9.0292Z" fill="black" fill-opacity="0.2"/>
</svg>
