<svg width="18" height="10" viewBox="0 0 18 10" fill="none" xmlns="http://www.w3.org/2000/svg">
<path d="M9.00246 9.03048C8.30246 9.03048 7.60246 8.76048 7.07246 8.23048L0.552461 1.71048C0.262461 1.42048 0.262461 0.940483 0.552461 0.650483C0.842461 0.360483 1.32246 0.360483 1.61246 0.650483L8.13246 7.17048C8.61246 7.65048 9.39246 7.65048 9.87246 7.17048L16.3925 0.650483C16.6825 0.360483 17.1625 0.360483 17.4525 0.650483C17.7425 0.940483 17.7425 1.42048 17.4525 1.71048L10.9325 8.23048C10.4025 8.76048 9.70246 9.03048 9.00246 9.03048Z" fill="#878787"/>
<path d="M9.00246 9.03048C8.30246 9.03048 7.60246 8.76048 7.07246 8.23048L0.552461 1.71048C0.262461 1.42048 0.262461 0.940483 0.552461 0.650483C0.842461 0.360483 1.32246 0.360483 1.61246 0.650483L8.13246 7.17048C8.61246 7.65048 9.39246 7.65048 9.87246 7.17048L16.3925 0.650483C16.6825 0.360483 17.1625 0.360483 17.4525 0.650483C17.7425 0.940483 17.7425 1.42048 17.4525 1.71048L10.9325 8.23048C10.4025 8.76048 9.70246 9.03048 9.00246 9.03048Z" fill="black" fill-opacity="0.2"/>
<path d="M9.00246 9.03048C8.30246 9.03048 7.60246 8.76048 7.07246 8.23048L0.552461 1.71048C0.262461 1.42048 0.262461 0.940483 0.552461 0.650483C0.842461 0.360483 1.32246 0.360483 1.61246 0.650483L8.13246 7.17048C8.61246 7.65048 9.39246 7.65048 9.87246 7.17048L16.3925 0.650483C16.6825 0.360483 17.1625 0.360483 17.4525 0.650483C17.7425 0.940483 17.7425 1.42048 17.4525 1.71048L10.9325 8.23048C10.4025 8.76048 9.70246 9.03048 9.00246 9.03048Z" fill="black" fill-opacity="0.2"/>
<path d="M9.00246 9.03048C8.30246 9.03048 7.60246 8.76048 7.07246 8.23048L0.552461 1.71048C0.262461 1.42048 0.262461 0.940483 0.552461 0.650483C0.842461 0.360483 1.32246 0.360483 1.61246 0.650483L8.13246 7.17048C8.61246 7.65048 9.39246 7.65048 9.87246 7.17048L16.3925 0.650483C16.6825 0.360483 17.1625 0.360483 17.4525 0.650483C17.7425 0.940483 17.7425 1.42048 17.4525 1.71048L10.9325 8.23048C10.4025 8.76048 9.70246 9.03048 9.00246 9.03048Z" fill="black" fill-opacity="0.2"/>
</svg>
