<svg width="52" height="52" viewBox="0 0 52 52" fill="none" xmlns="http://www.w3.org/2000/svg">
<rect y="0.731628" width="51.5" height="51" rx="8" fill="#134074"/>
<path d="M34.75 21.9816H16.75C16.34 21.9816 16 21.6416 16 21.2316C16 20.8216 16.34 20.4816 16.75 20.4816H34.75C35.16 20.4816 35.5 20.8216 35.5 21.2316C35.5 21.6416 35.16 21.9816 34.75 21.9816Z" fill="white"/>
<path d="M34.75 21.9816H16.75C16.34 21.9816 16 21.6416 16 21.2316C16 20.8216 16.34 20.4816 16.75 20.4816H34.75C35.16 20.4816 35.5 20.8216 35.5 21.2316C35.5 21.6416 35.16 21.9816 34.75 21.9816Z" fill="white" fill-opacity="0.2"/>
<path d="M34.75 21.9816H16.75C16.34 21.9816 16 21.6416 16 21.2316C16 20.8216 16.34 20.4816 16.75 20.4816H34.75C35.16 20.4816 35.5 20.8216 35.5 21.2316C35.5 21.6416 35.16 21.9816 34.75 21.9816Z" fill="white" fill-opacity="0.2"/>
<path d="M34.75 21.9816H16.75C16.34 21.9816 16 21.6416 16 21.2316C16 20.8216 16.34 20.4816 16.75 20.4816H34.75C35.16 20.4816 35.5 20.8216 35.5 21.2316C35.5 21.6416 35.16 21.9816 34.75 21.9816Z" fill="white" fill-opacity="0.2"/>
<path d="M34.75 21.9816H16.75C16.34 21.9816 16 21.6416 16 21.2316C16 20.8216 16.34 20.4816 16.75 20.4816H34.75C35.16 20.4816 35.5 20.8216 35.5 21.2316C35.5 21.6416 35.16 21.9816 34.75 21.9816Z" fill="white" fill-opacity="0.2"/>
<path d="M34.75 26.9816H16.75C16.34 26.9816 16 26.6416 16 26.2316C16 25.8216 16.34 25.4816 16.75 25.4816H34.75C35.16 25.4816 35.5 25.8216 35.5 26.2316C35.5 26.6416 35.16 26.9816 34.75 26.9816Z" fill="white"/>
<path d="M34.75 26.9816H16.75C16.34 26.9816 16 26.6416 16 26.2316C16 25.8216 16.34 25.4816 16.75 25.4816H34.75C35.16 25.4816 35.5 25.8216 35.5 26.2316C35.5 26.6416 35.16 26.9816 34.75 26.9816Z" fill="white" fill-opacity="0.2"/>
<path d="M34.75 26.9816H16.75C16.34 26.9816 16 26.6416 16 26.2316C16 25.8216 16.34 25.4816 16.75 25.4816H34.75C35.16 25.4816 35.5 25.8216 35.5 26.2316C35.5 26.6416 35.16 26.9816 34.75 26.9816Z" fill="white" fill-opacity="0.2"/>
<path d="M34.75 26.9816H16.75C16.34 26.9816 16 26.6416 16 26.2316C16 25.8216 16.34 25.4816 16.75 25.4816H34.75C35.16 25.4816 35.5 25.8216 35.5 26.2316C35.5 26.6416 35.16 26.9816 34.75 26.9816Z" fill="white" fill-opacity="0.2"/>
<path d="M34.75 26.9816H16.75C16.34 26.9816 16 26.6416 16 26.2316C16 25.8216 16.34 25.4816 16.75 25.4816H34.75C35.16 25.4816 35.5 25.8216 35.5 26.2316C35.5 26.6416 35.16 26.9816 34.75 26.9816Z" fill="white" fill-opacity="0.2"/>
<path d="M34.75 31.9816H16.75C16.34 31.9816 16 31.6416 16 31.2316C16 30.8216 16.34 30.4816 16.75 30.4816H34.75C35.16 30.4816 35.5 30.8216 35.5 31.2316C35.5 31.6416 35.16 31.9816 34.75 31.9816Z" fill="white"/>
<path d="M34.75 31.9816H16.75C16.34 31.9816 16 31.6416 16 31.2316C16 30.8216 16.34 30.4816 16.75 30.4816H34.75C35.16 30.4816 35.5 30.8216 35.5 31.2316C35.5 31.6416 35.16 31.9816 34.75 31.9816Z" fill="white" fill-opacity="0.2"/>
<path d="M34.75 31.9816H16.75C16.34 31.9816 16 31.6416 16 31.2316C16 30.8216 16.34 30.4816 16.75 30.4816H34.75C35.16 30.4816 35.5 30.8216 35.5 31.2316C35.5 31.6416 35.16 31.9816 34.75 31.9816Z" fill="white" fill-opacity="0.2"/>
<path d="M34.75 31.9816H16.75C16.34 31.9816 16 31.6416 16 31.2316C16 30.8216 16.34 30.4816 16.75 30.4816H34.75C35.16 30.4816 35.5 30.8216 35.5 31.2316C35.5 31.6416 35.16 31.9816 34.75 31.9816Z" fill="white" fill-opacity="0.2"/>
<path d="M34.75 31.9816H16.75C16.34 31.9816 16 31.6416 16 31.2316C16 30.8216 16.34 30.4816 16.75 30.4816H34.75C35.16 30.4816 35.5 30.8216 35.5 31.2316C35.5 31.6416 35.16 31.9816 34.75 31.9816Z" fill="white" fill-opacity="0.2"/>
</svg>
