<svg width="160" height="25" viewBox="0 0 160 25" fill="none" xmlns="http://www.w3.org/2000/svg">
<path d="M12.1556 0.639157C12.4325 -0.213055 13.6381 -0.213051 13.915 0.639161L16.3581 8.15819C16.4819 8.53931 16.8371 8.79735 17.2378 8.79735H25.1438C26.0399 8.79735 26.4124 9.94399 25.6875 10.4707L19.2914 15.1177C18.9672 15.3532 18.8316 15.7708 18.9554 16.1519L21.3985 23.6709C21.6754 24.5231 20.7 25.2318 19.975 24.7051L13.579 20.0581C13.2548 19.8225 12.8158 19.8225 12.4916 20.0581L6.09551 24.7051C5.37058 25.2318 4.39519 24.5231 4.67209 23.6709L7.11517 16.1519C7.239 15.7708 7.10334 15.3532 6.77914 15.1177L0.383071 10.4707C-0.341864 9.94399 0.0307058 8.79735 0.926775 8.79735H8.83275C9.23348 8.79735 9.58864 8.53931 9.71247 8.15819L12.1556 0.639157Z" fill="#FDAF3B"/>
<path d="M45.6056 0.639157C45.8825 -0.213055 47.0881 -0.213051 47.365 0.639161L49.8081 8.15819C49.9319 8.53931 50.2871 8.79735 50.6878 8.79735H58.5938C59.4899 8.79735 59.8624 9.94399 59.1375 10.4707L52.7414 15.1177C52.4172 15.3532 52.2816 15.7708 52.4054 16.1519L54.8485 23.6709C55.1254 24.5231 54.15 25.2318 53.425 24.7051L47.029 20.0581C46.7048 19.8225 46.2658 19.8225 45.9416 20.0581L39.5455 24.7051C38.8206 25.2318 37.8452 24.5231 38.1221 23.6709L40.5652 16.1519C40.689 15.7708 40.5533 15.3532 40.2291 15.1177L33.8331 10.4707C33.1081 9.94399 33.4807 8.79735 34.3768 8.79735H42.2827C42.6835 8.79735 43.0386 8.53931 43.1625 8.15819L45.6056 0.639157Z" fill="#FDAF3B"/>
<path d="M79.0556 0.639157C79.3325 -0.213055 80.5381 -0.213051 80.815 0.639161L83.2581 8.15819C83.3819 8.53931 83.7371 8.79735 84.1378 8.79735H92.0438C92.9398 8.79735 93.3124 9.94399 92.5875 10.4707L86.1914 15.1177C85.8672 15.3532 85.7316 15.7708 85.8554 16.1519L88.2985 23.6709C88.5754 24.5231 87.6 25.2318 86.8751 24.7051L80.479 20.0581C80.1548 19.8225 79.7158 19.8225 79.3916 20.0581L72.9955 24.7051C72.2706 25.2318 71.2952 24.5231 71.5721 23.6709L74.0152 16.1519C74.139 15.7708 74.0033 15.3532 73.6791 15.1177L67.2831 10.4707C66.5581 9.94399 66.9307 8.79735 67.8268 8.79735H75.7327C76.1335 8.79735 76.4886 8.53931 76.6125 8.15819L79.0556 0.639157Z" fill="#FDAF3B"/>
<path d="M112.506 0.639157C112.782 -0.213055 113.988 -0.213051 114.265 0.639161L116.708 8.15819C116.832 8.53931 117.187 8.79735 117.588 8.79735H125.494C126.39 8.79735 126.762 9.94399 126.037 10.4707L119.641 15.1177C119.317 15.3532 119.182 15.7708 119.305 16.1519L121.748 23.6709C122.025 24.5231 121.05 25.2318 120.325 24.7051L113.929 20.0581C113.605 19.8225 113.166 19.8225 112.842 20.0581L106.446 24.7051C105.721 25.2318 104.745 24.5231 105.022 23.6709L107.465 16.1519C107.589 15.7708 107.453 15.3532 107.129 15.1177L100.733 10.4707C100.008 9.94399 100.381 8.79735 101.277 8.79735H109.183C109.583 8.79735 109.939 8.53931 110.062 8.15819L112.506 0.639157Z" fill="#FDAF3B"/>
<path d="M145.956 0.639157C146.232 -0.213055 147.438 -0.213051 147.715 0.639161L150.158 8.15819C150.282 8.53931 150.637 8.79735 151.038 8.79735H158.944C159.84 8.79735 160.212 9.94399 159.487 10.4707L153.091 15.1177C152.767 15.3532 152.632 15.7708 152.755 16.1519L155.198 23.6709C155.475 24.5231 154.5 25.2318 153.775 24.7051L147.379 20.0581C147.055 19.8225 146.616 19.8225 146.292 20.0581L139.896 24.7051C139.171 25.2318 138.195 24.5231 138.472 23.6709L140.915 16.1519C141.039 15.7708 140.903 15.3532 140.579 15.1177L134.183 10.4707C133.458 9.94399 133.831 8.79735 134.727 8.79735H142.633C143.033 8.79735 143.389 8.53931 143.512 8.15819L145.956 0.639157Z" fill="#FDAF3B"/>
</svg>
