<svg width="97" height="23" viewBox="0 0 97 23" fill="none" xmlns="http://www.w3.org/2000/svg">
<path d="M6.75 16.4816H4.18C1.49 16.4816 0 15.0016 0 12.3016V5.16163C0 2.47163 1.48 0.981628 4.18 0.981628H8.75C11.44 0.981628 12.93 2.46163 12.93 5.16163C12.93 5.57163 12.59 5.91163 12.18 5.91163C11.77 5.91163 11.43 5.57163 11.43 5.16163C11.43 3.28163 10.63 2.48163 8.75 2.48163H4.18C2.3 2.48163 1.5 3.28163 1.5 5.16163V12.3016C1.5 14.1816 2.3 14.9816 4.18 14.9816H6.75C7.16 14.9816 7.5 15.3216 7.5 15.7316C7.5 16.1416 7.16 16.4816 6.75 16.4816Z" fill="#333333"/>
<path d="M6.75 16.4816H4.18C1.49 16.4816 0 15.0016 0 12.3016V5.16163C0 2.47163 1.48 0.981628 4.18 0.981628H8.75C11.44 0.981628 12.93 2.46163 12.93 5.16163C12.93 5.57163 12.59 5.91163 12.18 5.91163C11.77 5.91163 11.43 5.57163 11.43 5.16163C11.43 3.28163 10.63 2.48163 8.75 2.48163H4.18C2.3 2.48163 1.5 3.28163 1.5 5.16163V12.3016C1.5 14.1816 2.3 14.9816 4.18 14.9816H6.75C7.16 14.9816 7.5 15.3216 7.5 15.7316C7.5 16.1416 7.16 16.4816 6.75 16.4816Z" fill="black" fill-opacity="0.2"/>
<path d="M6.75 16.4816H4.18C1.49 16.4816 0 15.0016 0 12.3016V5.16163C0 2.47163 1.48 0.981628 4.18 0.981628H8.75C11.44 0.981628 12.93 2.46163 12.93 5.16163C12.93 5.57163 12.59 5.91163 12.18 5.91163C11.77 5.91163 11.43 5.57163 11.43 5.16163C11.43 3.28163 10.63 2.48163 8.75 2.48163H4.18C2.3 2.48163 1.5 3.28163 1.5 5.16163V12.3016C1.5 14.1816 2.3 14.9816 4.18 14.9816H6.75C7.16 14.9816 7.5 15.3216 7.5 15.7316C7.5 16.1416 7.16 16.4816 6.75 16.4816Z" fill="black" fill-opacity="0.2"/>
<path d="M6.75 16.4816H4.18C1.49 16.4816 0 15.0016 0 12.3016V5.16163C0 2.47163 1.48 0.981628 4.18 0.981628H8.75C11.44 0.981628 12.93 2.46163 12.93 5.16163C12.93 5.57163 12.59 5.91163 12.18 5.91163C11.77 5.91163 11.43 5.57163 11.43 5.16163C11.43 3.28163 10.63 2.48163 8.75 2.48163H4.18C2.3 2.48163 1.5 3.28163 1.5 5.16163V12.3016C1.5 14.1816 2.3 14.9816 4.18 14.9816H6.75C7.16 14.9816 7.5 15.3216 7.5 15.7316C7.5 16.1416 7.16 16.4816 6.75 16.4816Z" fill="black" fill-opacity="0.2"/>
<path d="M17.32 22.4816H12.75C10.06 22.4816 8.57 21.0016 8.57 18.3016V11.1616C8.57 8.47163 10.05 6.98163 12.75 6.98163H17.32C20.01 6.98163 21.5 8.46163 21.5 11.1616V18.3016C21.5 21.0016 20.02 22.4816 17.32 22.4816ZM12.75 8.48163C10.87 8.48163 10.07 9.28163 10.07 11.1616V18.3016C10.07 20.1816 10.87 20.9816 12.75 20.9816H17.32C19.2 20.9816 20 20.1816 20 18.3016V11.1616C20 9.28163 19.2 8.48163 17.32 8.48163H12.75Z" fill="#333333"/>
<path d="M17.32 22.4816H12.75C10.06 22.4816 8.57 21.0016 8.57 18.3016V11.1616C8.57 8.47163 10.05 6.98163 12.75 6.98163H17.32C20.01 6.98163 21.5 8.46163 21.5 11.1616V18.3016C21.5 21.0016 20.02 22.4816 17.32 22.4816ZM12.75 8.48163C10.87 8.48163 10.07 9.28163 10.07 11.1616V18.3016C10.07 20.1816 10.87 20.9816 12.75 20.9816H17.32C19.2 20.9816 20 20.1816 20 18.3016V11.1616C20 9.28163 19.2 8.48163 17.32 8.48163H12.75Z" fill="black" fill-opacity="0.2"/>
<path d="M17.32 22.4816H12.75C10.06 22.4816 8.57 21.0016 8.57 18.3016V11.1616C8.57 8.47163 10.05 6.98163 12.75 6.98163H17.32C20.01 6.98163 21.5 8.46163 21.5 11.1616V18.3016C21.5 21.0016 20.02 22.4816 17.32 22.4816ZM12.75 8.48163C10.87 8.48163 10.07 9.28163 10.07 11.1616V18.3016C10.07 20.1816 10.87 20.9816 12.75 20.9816H17.32C19.2 20.9816 20 20.1816 20 18.3016V11.1616C20 9.28163 19.2 8.48163 17.32 8.48163H12.75Z" fill="black" fill-opacity="0.2"/>
<path d="M17.32 22.4816H12.75C10.06 22.4816 8.57 21.0016 8.57 18.3016V11.1616C8.57 8.47163 10.05 6.98163 12.75 6.98163H17.32C20.01 6.98163 21.5 8.46163 21.5 11.1616V18.3016C21.5 21.0016 20.02 22.4816 17.32 22.4816ZM12.75 8.48163C10.87 8.48163 10.07 9.28163 10.07 11.1616V18.3016C10.07 20.1816 10.87 20.9816 12.75 20.9816H17.32C19.2 20.9816 20 20.1816 20 18.3016V11.1616C20 9.28163 19.2 8.48163 17.32 8.48163H12.75Z" fill="black" fill-opacity="0.2"/>
<path d="M16.88 15.4816H13.63C13.22 15.4816 12.88 15.1416 12.88 14.7316C12.88 14.3216 13.22 13.9816 13.63 13.9816H16.88C17.29 13.9816 17.63 14.3216 17.63 14.7316C17.63 15.1416 17.29 15.4816 16.88 15.4816Z" fill="#333333"/>
<path d="M16.88 15.4816H13.63C13.22 15.4816 12.88 15.1416 12.88 14.7316C12.88 14.3216 13.22 13.9816 13.63 13.9816H16.88C17.29 13.9816 17.63 14.3216 17.63 14.7316C17.63 15.1416 17.29 15.4816 16.88 15.4816Z" fill="black" fill-opacity="0.2"/>
<path d="M16.88 15.4816H13.63C13.22 15.4816 12.88 15.1416 12.88 14.7316C12.88 14.3216 13.22 13.9816 13.63 13.9816H16.88C17.29 13.9816 17.63 14.3216 17.63 14.7316C17.63 15.1416 17.29 15.4816 16.88 15.4816Z" fill="black" fill-opacity="0.2"/>
<path d="M16.88 15.4816H13.63C13.22 15.4816 12.88 15.1416 12.88 14.7316C12.88 14.3216 13.22 13.9816 13.63 13.9816H16.88C17.29 13.9816 17.63 14.3216 17.63 14.7316C17.63 15.1416 17.29 15.4816 16.88 15.4816Z" fill="black" fill-opacity="0.2"/>
<path d="M15.25 17.1116C14.84 17.1116 14.5 16.7716 14.5 16.3616V13.1116C14.5 12.7016 14.84 12.3616 15.25 12.3616C15.66 12.3616 16 12.7016 16 13.1116V16.3616C16 16.7716 15.66 17.1116 15.25 17.1116Z" fill="#333333"/>
<path d="M15.25 17.1116C14.84 17.1116 14.5 16.7716 14.5 16.3616V13.1116C14.5 12.7016 14.84 12.3616 15.25 12.3616C15.66 12.3616 16 12.7016 16 13.1116V16.3616C16 16.7716 15.66 17.1116 15.25 17.1116Z" fill="black" fill-opacity="0.2"/>
<path d="M15.25 17.1116C14.84 17.1116 14.5 16.7716 14.5 16.3616V13.1116C14.5 12.7016 14.84 12.3616 15.25 12.3616C15.66 12.3616 16 12.7016 16 13.1116V16.3616C16 16.7716 15.66 17.1116 15.25 17.1116Z" fill="black" fill-opacity="0.2"/>
<path d="M15.25 17.1116C14.84 17.1116 14.5 16.7716 14.5 16.3616V13.1116C14.5 12.7016 14.84 12.3616 15.25 12.3616C15.66 12.3616 16 12.7016 16 13.1116V16.3616C16 16.7716 15.66 17.1116 15.25 17.1116Z" fill="black" fill-opacity="0.2"/>
<path d="M45.25 17.4816C44.84 17.4816 44.5 17.1416 44.5 16.7316V12.5416L43.78 13.2616C43.49 13.5516 43.01 13.5516 42.72 13.2616C42.43 12.9716 42.43 12.4916 42.72 12.2016L44.72 10.2016C44.93 9.99163 45.26 9.92163 45.54 10.0416C45.82 10.1516 46 10.4316 46 10.7316V16.7316C46 17.1416 45.66 17.4816 45.25 17.4816Z" fill="#333333"/>
<path d="M45.25 17.4816C44.84 17.4816 44.5 17.1416 44.5 16.7316V12.5416L43.78 13.2616C43.49 13.5516 43.01 13.5516 42.72 13.2616C42.43 12.9716 42.43 12.4916 42.72 12.2016L44.72 10.2016C44.93 9.99163 45.26 9.92163 45.54 10.0416C45.82 10.1516 46 10.4316 46 10.7316V16.7316C46 17.1416 45.66 17.4816 45.25 17.4816Z" fill="black" fill-opacity="0.2"/>
<path d="M45.25 17.4816C44.84 17.4816 44.5 17.1416 44.5 16.7316V12.5416L43.78 13.2616C43.49 13.5516 43.01 13.5516 42.72 13.2616C42.43 12.9716 42.43 12.4916 42.72 12.2016L44.72 10.2016C44.93 9.99163 45.26 9.92163 45.54 10.0416C45.82 10.1516 46 10.4316 46 10.7316V16.7316C46 17.1416 45.66 17.4816 45.25 17.4816Z" fill="black" fill-opacity="0.2"/>
<path d="M45.25 17.4816C44.84 17.4816 44.5 17.1416 44.5 16.7316V12.5416L43.78 13.2616C43.49 13.5516 43.01 13.5516 42.72 13.2616C42.43 12.9716 42.43 12.4916 42.72 12.2016L44.72 10.2016C44.93 9.99163 45.26 9.92163 45.54 10.0416C45.82 10.1516 46 10.4316 46 10.7316V16.7316C46 17.1416 45.66 17.4816 45.25 17.4816Z" fill="black" fill-opacity="0.2"/>
<path d="M47.25 13.4816C47.06 13.4816 46.87 13.4116 46.72 13.2616L44.72 11.2616C44.43 10.9716 44.43 10.4916 44.72 10.2016C45.01 9.91163 45.49 9.91163 45.78 10.2016L47.78 12.2016C48.07 12.4916 48.07 12.9716 47.78 13.2616C47.63 13.4116 47.44 13.4816 47.25 13.4816Z" fill="#333333"/>
<path d="M47.25 13.4816C47.06 13.4816 46.87 13.4116 46.72 13.2616L44.72 11.2616C44.43 10.9716 44.43 10.4916 44.72 10.2016C45.01 9.91163 45.49 9.91163 45.78 10.2016L47.78 12.2016C48.07 12.4916 48.07 12.9716 47.78 13.2616C47.63 13.4116 47.44 13.4816 47.25 13.4816Z" fill="black" fill-opacity="0.2"/>
<path d="M47.25 13.4816C47.06 13.4816 46.87 13.4116 46.72 13.2616L44.72 11.2616C44.43 10.9716 44.43 10.4916 44.72 10.2016C45.01 9.91163 45.49 9.91163 45.78 10.2016L47.78 12.2016C48.07 12.4916 48.07 12.9716 47.78 13.2616C47.63 13.4116 47.44 13.4816 47.25 13.4816Z" fill="black" fill-opacity="0.2"/>
<path d="M47.25 13.4816C47.06 13.4816 46.87 13.4116 46.72 13.2616L44.72 11.2616C44.43 10.9716 44.43 10.4916 44.72 10.2016C45.01 9.91163 45.49 9.91163 45.78 10.2016L47.78 12.2016C48.07 12.4916 48.07 12.9716 47.78 13.2616C47.63 13.4116 47.44 13.4816 47.25 13.4816Z" fill="black" fill-opacity="0.2"/>
<path d="M51.25 22.4816H45.25C39.82 22.4816 37.5 20.1616 37.5 14.7316V8.73163C37.5 3.30163 39.82 0.981628 45.25 0.981628H50.25C50.66 0.981628 51 1.32163 51 1.73163C51 2.14163 50.66 2.48163 50.25 2.48163H45.25C40.64 2.48163 39 4.12163 39 8.73163V14.7316C39 19.3416 40.64 20.9816 45.25 20.9816H51.25C55.86 20.9816 57.5 19.3416 57.5 14.7316V9.73163C57.5 9.32163 57.84 8.98163 58.25 8.98163C58.66 8.98163 59 9.32163 59 9.73163V14.7316C59 20.1616 56.68 22.4816 51.25 22.4816Z" fill="#333333"/>
<path d="M51.25 22.4816H45.25C39.82 22.4816 37.5 20.1616 37.5 14.7316V8.73163C37.5 3.30163 39.82 0.981628 45.25 0.981628H50.25C50.66 0.981628 51 1.32163 51 1.73163C51 2.14163 50.66 2.48163 50.25 2.48163H45.25C40.64 2.48163 39 4.12163 39 8.73163V14.7316C39 19.3416 40.64 20.9816 45.25 20.9816H51.25C55.86 20.9816 57.5 19.3416 57.5 14.7316V9.73163C57.5 9.32163 57.84 8.98163 58.25 8.98163C58.66 8.98163 59 9.32163 59 9.73163V14.7316C59 20.1616 56.68 22.4816 51.25 22.4816Z" fill="black" fill-opacity="0.2"/>
<path d="M51.25 22.4816H45.25C39.82 22.4816 37.5 20.1616 37.5 14.7316V8.73163C37.5 3.30163 39.82 0.981628 45.25 0.981628H50.25C50.66 0.981628 51 1.32163 51 1.73163C51 2.14163 50.66 2.48163 50.25 2.48163H45.25C40.64 2.48163 39 4.12163 39 8.73163V14.7316C39 19.3416 40.64 20.9816 45.25 20.9816H51.25C55.86 20.9816 57.5 19.3416 57.5 14.7316V9.73163C57.5 9.32163 57.84 8.98163 58.25 8.98163C58.66 8.98163 59 9.32163 59 9.73163V14.7316C59 20.1616 56.68 22.4816 51.25 22.4816Z" fill="black" fill-opacity="0.2"/>
<path d="M51.25 22.4816H45.25C39.82 22.4816 37.5 20.1616 37.5 14.7316V8.73163C37.5 3.30163 39.82 0.981628 45.25 0.981628H50.25C50.66 0.981628 51 1.32163 51 1.73163C51 2.14163 50.66 2.48163 50.25 2.48163H45.25C40.64 2.48163 39 4.12163 39 8.73163V14.7316C39 19.3416 40.64 20.9816 45.25 20.9816H51.25C55.86 20.9816 57.5 19.3416 57.5 14.7316V9.73163C57.5 9.32163 57.84 8.98163 58.25 8.98163C58.66 8.98163 59 9.32163 59 9.73163V14.7316C59 20.1616 56.68 22.4816 51.25 22.4816Z" fill="black" fill-opacity="0.2"/>
<path d="M58.25 10.4816H54.25C50.83 10.4816 49.5 9.15163 49.5 5.73163V1.73163C49.5 1.43163 49.68 1.15163 49.96 1.04163C50.24 0.921628 50.56 0.991628 50.78 1.20163L58.78 9.20163C58.99 9.41163 59.06 9.74163 58.94 10.0216C58.82 10.3016 58.55 10.4816 58.25 10.4816ZM51 3.54163V5.73163C51 8.31163 51.67 8.98163 54.25 8.98163H56.44L51 3.54163Z" fill="#333333"/>
<path d="M58.25 10.4816H54.25C50.83 10.4816 49.5 9.15163 49.5 5.73163V1.73163C49.5 1.43163 49.68 1.15163 49.96 1.04163C50.24 0.921628 50.56 0.991628 50.78 1.20163L58.78 9.20163C58.99 9.41163 59.06 9.74163 58.94 10.0216C58.82 10.3016 58.55 10.4816 58.25 10.4816ZM51 3.54163V5.73163C51 8.31163 51.67 8.98163 54.25 8.98163H56.44L51 3.54163Z" fill="black" fill-opacity="0.2"/>
<path d="M58.25 10.4816H54.25C50.83 10.4816 49.5 9.15163 49.5 5.73163V1.73163C49.5 1.43163 49.68 1.15163 49.96 1.04163C50.24 0.921628 50.56 0.991628 50.78 1.20163L58.78 9.20163C58.99 9.41163 59.06 9.74163 58.94 10.0216C58.82 10.3016 58.55 10.4816 58.25 10.4816ZM51 3.54163V5.73163C51 8.31163 51.67 8.98163 54.25 8.98163H56.44L51 3.54163Z" fill="black" fill-opacity="0.2"/>
<path d="M58.25 10.4816H54.25C50.83 10.4816 49.5 9.15163 49.5 5.73163V1.73163C49.5 1.43163 49.68 1.15163 49.96 1.04163C50.24 0.921628 50.56 0.991628 50.78 1.20163L58.78 9.20163C58.99 9.41163 59.06 9.74163 58.94 10.0216C58.82 10.3016 58.55 10.4816 58.25 10.4816ZM51 3.54163V5.73163C51 8.31163 51.67 8.98163 54.25 8.98163H56.44L51 3.54163Z" fill="black" fill-opacity="0.2"/>
<path d="M88.75 22.4816H82.75C77.32 22.4816 75 20.1616 75 14.7316V8.73163C75 3.30163 77.32 0.981628 82.75 0.981628H88.75C94.18 0.981628 96.5 3.30163 96.5 8.73163V14.7316C96.5 20.1616 94.18 22.4816 88.75 22.4816ZM82.75 2.48163C78.14 2.48163 76.5 4.12163 76.5 8.73163V14.7316C76.5 19.3416 78.14 20.9816 82.75 20.9816H88.75C93.36 20.9816 95 19.3416 95 14.7316V8.73163C95 4.12163 93.36 2.48163 88.75 2.48163H82.75Z" fill="#333333"/>
<path d="M88.75 22.4816H82.75C77.32 22.4816 75 20.1616 75 14.7316V8.73163C75 3.30163 77.32 0.981628 82.75 0.981628H88.75C94.18 0.981628 96.5 3.30163 96.5 8.73163V14.7316C96.5 20.1616 94.18 22.4816 88.75 22.4816ZM82.75 2.48163C78.14 2.48163 76.5 4.12163 76.5 8.73163V14.7316C76.5 19.3416 78.14 20.9816 82.75 20.9816H88.75C93.36 20.9816 95 19.3416 95 14.7316V8.73163C95 4.12163 93.36 2.48163 88.75 2.48163H82.75Z" fill="black" fill-opacity="0.2"/>
<path d="M88.75 22.4816H82.75C77.32 22.4816 75 20.1616 75 14.7316V8.73163C75 3.30163 77.32 0.981628 82.75 0.981628H88.75C94.18 0.981628 96.5 3.30163 96.5 8.73163V14.7316C96.5 20.1616 94.18 22.4816 88.75 22.4816ZM82.75 2.48163C78.14 2.48163 76.5 4.12163 76.5 8.73163V14.7316C76.5 19.3416 78.14 20.9816 82.75 20.9816H88.75C93.36 20.9816 95 19.3416 95 14.7316V8.73163C95 4.12163 93.36 2.48163 88.75 2.48163H82.75Z" fill="black" fill-opacity="0.2"/>
<path d="M88.75 22.4816H82.75C77.32 22.4816 75 20.1616 75 14.7316V8.73163C75 3.30163 77.32 0.981628 82.75 0.981628H88.75C94.18 0.981628 96.5 3.30163 96.5 8.73163V14.7316C96.5 20.1616 94.18 22.4816 88.75 22.4816ZM82.75 2.48163C78.14 2.48163 76.5 4.12163 76.5 8.73163V14.7316C76.5 19.3416 78.14 20.9816 82.75 20.9816H88.75C93.36 20.9816 95 19.3416 95 14.7316V8.73163C95 4.12163 93.36 2.48163 88.75 2.48163H82.75Z" fill="black" fill-opacity="0.2"/>
<path d="M82.57 9.48163C81.72 9.48163 80.87 9.16163 80.22 8.51163C79.93 8.22163 79.93 7.74163 80.22 7.45163C80.51 7.16163 80.99 7.16163 81.28 7.45163C81.99 8.16163 83.15 8.16163 83.86 7.45163C84.15 7.16163 84.63 7.16163 84.92 7.45163C85.21 7.74163 85.21 8.22163 84.92 8.51163C84.27 9.15163 83.42 9.48163 82.57 9.48163Z" fill="#333333"/>
<path d="M82.57 9.48163C81.72 9.48163 80.87 9.16163 80.22 8.51163C79.93 8.22163 79.93 7.74163 80.22 7.45163C80.51 7.16163 80.99 7.16163 81.28 7.45163C81.99 8.16163 83.15 8.16163 83.86 7.45163C84.15 7.16163 84.63 7.16163 84.92 7.45163C85.21 7.74163 85.21 8.22163 84.92 8.51163C84.27 9.15163 83.42 9.48163 82.57 9.48163Z" fill="black" fill-opacity="0.2"/>
<path d="M82.57 9.48163C81.72 9.48163 80.87 9.16163 80.22 8.51163C79.93 8.22163 79.93 7.74163 80.22 7.45163C80.51 7.16163 80.99 7.16163 81.28 7.45163C81.99 8.16163 83.15 8.16163 83.86 7.45163C84.15 7.16163 84.63 7.16163 84.92 7.45163C85.21 7.74163 85.21 8.22163 84.92 8.51163C84.27 9.15163 83.42 9.48163 82.57 9.48163Z" fill="black" fill-opacity="0.2"/>
<path d="M82.57 9.48163C81.72 9.48163 80.87 9.16163 80.22 8.51163C79.93 8.22163 79.93 7.74163 80.22 7.45163C80.51 7.16163 80.99 7.16163 81.28 7.45163C81.99 8.16163 83.15 8.16163 83.86 7.45163C84.15 7.16163 84.63 7.16163 84.92 7.45163C85.21 7.74163 85.21 8.22163 84.92 8.51163C84.27 9.15163 83.42 9.48163 82.57 9.48163Z" fill="black" fill-opacity="0.2"/>
<path d="M88.93 9.48163C88.08 9.48163 87.23 9.16163 86.58 8.51163C86.29 8.22163 86.29 7.74163 86.58 7.45163C86.87 7.16163 87.35 7.16163 87.64 7.45163C88.35 8.16163 89.51 8.16163 90.22 7.45163C90.51 7.16163 90.99 7.16163 91.28 7.45163C91.57 7.74163 91.57 8.22163 91.28 8.51163C90.63 9.15163 89.78 9.48163 88.93 9.48163Z" fill="#333333"/>
<path d="M88.93 9.48163C88.08 9.48163 87.23 9.16163 86.58 8.51163C86.29 8.22163 86.29 7.74163 86.58 7.45163C86.87 7.16163 87.35 7.16163 87.64 7.45163C88.35 8.16163 89.51 8.16163 90.22 7.45163C90.51 7.16163 90.99 7.16163 91.28 7.45163C91.57 7.74163 91.57 8.22163 91.28 8.51163C90.63 9.15163 89.78 9.48163 88.93 9.48163Z" fill="black" fill-opacity="0.2"/>
<path d="M88.93 9.48163C88.08 9.48163 87.23 9.16163 86.58 8.51163C86.29 8.22163 86.29 7.74163 86.58 7.45163C86.87 7.16163 87.35 7.16163 87.64 7.45163C88.35 8.16163 89.51 8.16163 90.22 7.45163C90.51 7.16163 90.99 7.16163 91.28 7.45163C91.57 7.74163 91.57 8.22163 91.28 8.51163C90.63 9.15163 89.78 9.48163 88.93 9.48163Z" fill="black" fill-opacity="0.2"/>
<path d="M88.93 9.48163C88.08 9.48163 87.23 9.16163 86.58 8.51163C86.29 8.22163 86.29 7.74163 86.58 7.45163C86.87 7.16163 87.35 7.16163 87.64 7.45163C88.35 8.16163 89.51 8.16163 90.22 7.45163C90.51 7.16163 90.99 7.16163 91.28 7.45163C91.57 7.74163 91.57 8.22163 91.28 8.51163C90.63 9.15163 89.78 9.48163 88.93 9.48163Z" fill="black" fill-opacity="0.2"/>
<path d="M85.75 18.8816C82.85 18.8816 80.5 16.5216 80.5 13.6316C80.5 12.7216 81.24 11.9816 82.15 11.9816H89.35C90.26 11.9816 91 12.7216 91 13.6316C91 16.5216 88.65 18.8816 85.75 18.8816ZM82.15 13.4816C82.07 13.4816 82 13.5516 82 13.6316C82 15.7016 83.68 17.3816 85.75 17.3816C87.82 17.3816 89.5 15.7016 89.5 13.6316C89.5 13.5516 89.43 13.4816 89.35 13.4816H82.15Z" fill="#333333"/>
<path d="M85.75 18.8816C82.85 18.8816 80.5 16.5216 80.5 13.6316C80.5 12.7216 81.24 11.9816 82.15 11.9816H89.35C90.26 11.9816 91 12.7216 91 13.6316C91 16.5216 88.65 18.8816 85.75 18.8816ZM82.15 13.4816C82.07 13.4816 82 13.5516 82 13.6316C82 15.7016 83.68 17.3816 85.75 17.3816C87.82 17.3816 89.5 15.7016 89.5 13.6316C89.5 13.5516 89.43 13.4816 89.35 13.4816H82.15Z" fill="black" fill-opacity="0.2"/>
<path d="M85.75 18.8816C82.85 18.8816 80.5 16.5216 80.5 13.6316C80.5 12.7216 81.24 11.9816 82.15 11.9816H89.35C90.26 11.9816 91 12.7216 91 13.6316C91 16.5216 88.65 18.8816 85.75 18.8816ZM82.15 13.4816C82.07 13.4816 82 13.5516 82 13.6316C82 15.7016 83.68 17.3816 85.75 17.3816C87.82 17.3816 89.5 15.7016 89.5 13.6316C89.5 13.5516 89.43 13.4816 89.35 13.4816H82.15Z" fill="black" fill-opacity="0.2"/>
<path d="M85.75 18.8816C82.85 18.8816 80.5 16.5216 80.5 13.6316C80.5 12.7216 81.24 11.9816 82.15 11.9816H89.35C90.26 11.9816 91 12.7216 91 13.6316C91 16.5216 88.65 18.8816 85.75 18.8816ZM82.15 13.4816C82.07 13.4816 82 13.5516 82 13.6316C82 15.7016 83.68 17.3816 85.75 17.3816C87.82 17.3816 89.5 15.7016 89.5 13.6316C89.5 13.5516 89.43 13.4816 89.35 13.4816H82.15Z" fill="black" fill-opacity="0.2"/>
</svg>
