<svg width="121" height="14" viewBox="0 0 121 14" fill="none" xmlns="http://www.w3.org/2000/svg">
<path d="M13 7.36133C13 10.9512 10.0899 13.8613 6.5 13.8613C2.91015 13.8613 0 10.9512 0 7.36133C0 3.77148 2.91015 0.861328 6.5 0.861328C10.0899 0.861328 13 3.77148 13 7.36133Z" fill="#FFB629"/>
<path d="M40 7.36133C40 10.9512 37.0899 13.8613 33.5 13.8613C29.9101 13.8613 27 10.9512 27 7.36133C27 3.77148 29.9101 0.861328 33.5 0.861328C37.0899 0.861328 40 3.77148 40 7.36133Z" fill="#134074"/>
<path d="M67 7.36133C67 10.9512 64.0899 13.8613 60.5 13.8613C56.9101 13.8613 54 10.9512 54 7.36133C54 3.77148 56.9101 0.861328 60.5 0.861328C64.0899 0.861328 67 3.77148 67 7.36133Z" fill="#134074"/>
<path d="M94 7.36133C94 10.9512 91.0899 13.8613 87.5 13.8613C83.9101 13.8613 81 10.9512 81 7.36133C81 3.77148 83.9101 0.861328 87.5 0.861328C91.0899 0.861328 94 3.77148 94 7.36133Z" fill="#134074"/>
<path d="M121 7.36133C121 10.9512 118.09 13.8613 114.5 13.8613C110.91 13.8613 108 10.9512 108 7.36133C108 3.77148 110.91 0.861328 114.5 0.861328C118.09 0.861328 121 3.77148 121 7.36133Z" fill="#134074"/>
</svg>
