<svg width="57" height="57" viewBox="0 0 57 57" fill="none" xmlns="http://www.w3.org/2000/svg">
<circle cx="28.7576" cy="28.8325" r="27.4479" fill="#111C55" stroke="#273270" stroke-width="0.885417"/>
<path d="M22.0939 20.5466C21.9747 20.5502 21.8575 20.5762 21.7492 20.623C21.641 20.6698 21.5438 20.7365 21.4636 20.8191C21.3833 20.9018 21.3216 20.9986 21.282 21.104C21.2424 21.2094 21.2258 21.3211 21.2331 21.4326C21.3522 23.3451 21.9136 28.0113 24.6013 30.9214C27.8198 34.4274 32.0112 35.6355 36.3116 35.457C36.5421 35.4441 36.7588 35.3497 36.9179 35.1929C37.0771 35.0361 37.1668 34.8286 37.1689 34.6123V31.5493C37.1663 31.2635 37.0612 30.9868 36.8705 30.7637C36.6799 30.5406 36.4147 30.384 36.1177 30.319L33.9641 29.8727C33.6977 29.8195 33.4205 29.8424 33.1682 29.9385C32.9158 30.0345 32.7001 30.1992 32.5488 30.4114L32.0725 31.0871C32.0287 31.1489 31.9634 31.1945 31.8876 31.2161C31.8118 31.2376 31.7304 31.2337 31.6574 31.205C30.5619 30.762 26.1969 28.8496 25.7172 25.624C25.7078 25.5617 25.7183 25.4982 25.7474 25.4415C25.7764 25.3848 25.8228 25.3374 25.8805 25.3053L26.7447 24.8112C26.9817 24.6736 27.1679 24.4711 27.278 24.2311C27.3881 23.9911 27.4169 23.7252 27.3605 23.4694L26.8876 21.4167C26.8184 21.1291 26.645 20.8728 26.3969 20.6915C26.1488 20.5102 25.8413 20.4151 25.5267 20.4223L22.0939 20.5466Z" stroke="white" stroke-width="0.885417"/>
</svg>
