<svg width="22" height="19" viewBox="0 0 22 19" fill="none" xmlns="http://www.w3.org/2000/svg">
<path d="M6.54999 18.9754H3.33002C1.50002 18.9754 0 17.4854 0 15.6454V9.84546C0 9.43546 0.34 9.09546 0.75 9.09546H6.54999C8.44999 9.09546 9.88 10.5254 9.88 12.4254V15.6454C9.87 17.5454 8.43999 18.9754 6.54999 18.9754ZM1.5 10.6054V15.6555C1.5 16.6655 2.32002 17.4854 3.33002 17.4854H6.54999C7.60999 17.4854 8.38 16.7155 8.38 15.6555V12.4354C8.38 11.3754 7.60999 10.6054 6.54999 10.6054H1.5Z" fill="#828282"/>
<path d="M0.75 10.6054C0.34 10.6054 0 10.2654 0 9.85541C0 3.60541 1.27002 2.29545 4.90002 0.145452C5.26002 -0.0645477 5.71999 0.0554621 5.92999 0.405462C6.13999 0.765462 6.01998 1.22543 5.66998 1.43543C2.42998 3.35543 1.5 4.15541 1.5 9.85541C1.5 10.2654 1.16 10.6054 0.75 10.6054Z" fill="#828282"/>
<path d="M18.1701 18.9754H14.9501C13.1201 18.9754 11.6201 17.4854 11.6201 15.6454V9.84546C11.6201 9.43546 11.9601 9.09546 12.3701 9.09546H18.1701C20.0701 9.09546 21.5001 10.5254 21.5001 12.4254V15.6454C21.5001 17.5454 20.0701 18.9754 18.1701 18.9754ZM13.1301 10.6054V15.6555C13.1301 16.6655 13.9501 17.4854 14.9601 17.4854H18.1801C19.2401 17.4854 20.0101 16.7155 20.0101 15.6555V12.4354C20.0101 11.3754 19.2401 10.6054 18.1801 10.6054H13.1301Z" fill="#828282"/>
<path d="M12.3799 10.6054C11.9699 10.6054 11.6299 10.2654 11.6299 9.85541C11.6299 3.60541 12.8999 2.29545 16.5299 0.145452C16.8899 -0.0645477 17.3499 0.0554621 17.5599 0.405462C17.7699 0.765462 17.6499 1.22543 17.2999 1.43543C14.0599 3.35543 13.1299 4.15541 13.1299 9.85541C13.1299 10.2654 12.7899 10.6054 12.3799 10.6054Z" fill="#828282"/>
</svg>
