<svg width="221" height="35" viewBox="0 0 221 35" fill="none" xmlns="http://www.w3.org/2000/svg">
<path d="M13.1894 26.5615L18.8332 23.1573L24.4769 26.6063L22.9988 20.1562L27.9707 15.8563L21.4311 15.274L18.8332 9.18229L16.2353 15.2292L9.69567 15.8115L14.6675 20.1562L13.1894 26.5615ZM7.76963 34.0417L10.6811 21.4552L0.916504 12.9896L13.8165 11.8698L18.8332 0L23.8498 11.8698L36.7498 12.9896L26.9853 21.4552L29.8967 34.0417L18.8332 27.3677L7.76963 34.0417Z" fill="#333333"/>
<path d="M59.0228 26.5615L64.6665 23.1573L70.3103 26.6063L68.8321 20.1562L73.804 15.8563L67.2644 15.274L64.6665 9.18229L62.0686 15.2292L55.529 15.8115L60.5009 20.1562L59.0228 26.5615ZM53.603 34.0417L56.5144 21.4552L46.7498 12.9896L59.6498 11.8698L64.6665 0L69.6832 11.8698L82.5832 12.9896L72.8186 21.4552L75.7301 34.0417L64.6665 27.3677L53.603 34.0417Z" fill="#333333"/>
<path d="M104.856 26.5615L110.5 23.1573L116.144 26.6063L114.665 20.1562L119.637 15.8563L113.098 15.274L110.5 9.18229L107.902 15.2292L101.362 15.8115L106.334 20.1562L104.856 26.5615ZM99.4363 34.0417L102.348 21.4552L92.5832 12.9896L105.483 11.8698L110.5 0L115.516 11.8698L128.416 12.9896L118.652 21.4552L121.563 34.0417L110.5 27.3677L99.4363 34.0417Z" fill="#333333"/>
<path d="M150.689 26.5615L156.333 23.1573L161.977 26.6063L160.499 20.1562L165.471 15.8563L158.931 15.274L156.333 9.18229L153.735 15.2292L147.196 15.8115L152.168 20.1562L150.689 26.5615ZM145.27 34.0417L148.181 21.4552L138.416 12.9896L151.316 11.8698L156.333 0L161.35 11.8698L174.25 12.9896L164.485 21.4552L167.397 34.0417L156.333 27.3677L145.27 34.0417Z" fill="#333333"/>
<path d="M196.523 26.5615L202.166 23.1573L207.81 26.6063L206.332 20.1562L211.304 15.8563L204.764 15.274L202.166 9.18229L199.569 15.2292L193.029 15.8115L198.001 20.1562L196.523 26.5615ZM191.103 34.0417L194.014 21.4552L184.25 12.9896L197.15 11.8698L202.166 0L207.183 11.8698L220.083 12.9896L210.319 21.4552L213.23 34.0417L202.166 27.3677L191.103 34.0417Z" fill="#333333"/>
</svg>
