<svg width="21" height="22" viewBox="0 0 21 22" fill="none" xmlns="http://www.w3.org/2000/svg">
<path d="M12.8781 21.75H8.11806C4.33806 21.75 1.36806 19.37 0.548056 15.68L0.138083 13.82C-0.141917 12.54 0.588056 11.16 1.79806 10.67L8.72808 7.88999C9.86808 7.43999 11.1281 7.43999 12.2681 7.88999L19.1981 10.67C20.4181 11.16 21.1481 12.54 20.8581 13.82L20.4481 15.68C19.6281 19.37 16.6581 21.75 12.8781 21.75ZM10.4981 9.04996C10.0881 9.04996 9.67807 9.12997 9.27807 9.27997L2.34807 12.06C1.81807 12.27 1.46806 12.94 1.58806 13.49L1.99807 15.35C2.66807 18.37 5.00805 20.24 8.10805 20.24H12.8681C15.9681 20.24 18.3081 18.37 18.9781 15.35L19.3881 13.49C19.5081 12.94 19.1581 12.27 18.6281 12.06L11.6981 9.27997C11.3181 9.12997 10.9081 9.04996 10.4981 9.04996Z" fill="white"/>
<path d="M10.4983 21.75C10.0883 21.75 9.74829 21.41 9.74829 21V9C9.74829 8.59 10.0883 8.25 10.4983 8.25C10.9083 8.25 11.2483 8.59 11.2483 9V21C11.2483 21.41 10.9083 21.75 10.4983 21.75Z" fill="white"/>
<path d="M17.4985 11.55C17.4085 11.55 17.3085 11.53 17.2185 11.5L11.7085 9.29001C10.9285 8.98001 10.0685 8.98001 9.27853 9.29001L3.76852 11.5C3.53852 11.59 3.27854 11.56 3.06854 11.42C2.85854 11.28 2.73853 11.05 2.73853 10.8V7C2.73853 4.93 4.41853 3.25 6.48853 3.25H14.4885C16.5585 3.25 18.2385 4.93 18.2385 7V10.8C18.2385 11.05 18.1185 11.28 17.9085 11.42C17.7885 11.51 17.6485 11.55 17.4985 11.55ZM10.4985 7.54999C11.0985 7.54999 11.6981 7.65999 12.2681 7.88999L16.7485 9.69V7C16.7485 5.76 15.7385 4.75 14.4985 4.75H6.49854C5.25854 4.75 4.24854 5.76 4.24854 7V9.69L8.72808 7.88999C9.29808 7.66999 9.89854 7.54999 10.4985 7.54999Z" fill="white"/>
<path d="M12.9983 4.75H7.99829C7.58829 4.75 7.24829 4.41 7.24829 4V2C7.24829 1.04 8.03829 0.25 8.99829 0.25H11.9983C12.9583 0.25 13.7483 1.04 13.7483 2V4C13.7483 4.41 13.4083 4.75 12.9983 4.75ZM8.74829 3.25H12.2483V2C12.2483 1.86 12.1383 1.75 11.9983 1.75H8.99829C8.85829 1.75 8.74829 1.86 8.74829 2V3.25Z" fill="white"/>
</svg>
