<svg width="22" height="22" viewBox="0 0 22 22" fill="none" xmlns="http://www.w3.org/2000/svg">
<path d="M10.7524 20.9816C5.10244 20.9816 0.502441 16.3816 0.502441 10.7316C0.502441 5.08163 5.10244 0.481628 10.7524 0.481628C16.4024 0.481628 21.0024 5.08163 21.0024 10.7316C21.0024 16.3816 16.4024 20.9816 10.7524 20.9816ZM10.7524 1.98163C5.92244 1.98163 2.00244 5.91163 2.00244 10.7316C2.00244 15.5516 5.92244 19.4816 10.7524 19.4816C15.5824 19.4816 19.5024 15.5516 19.5024 10.7316C19.5024 5.91163 15.5824 1.98163 10.7524 1.98163Z" fill="#333333"/>
<path d="M10.7524 20.9816C5.10244 20.9816 0.502441 16.3816 0.502441 10.7316C0.502441 5.08163 5.10244 0.481628 10.7524 0.481628C16.4024 0.481628 21.0024 5.08163 21.0024 10.7316C21.0024 16.3816 16.4024 20.9816 10.7524 20.9816ZM10.7524 1.98163C5.92244 1.98163 2.00244 5.91163 2.00244 10.7316C2.00244 15.5516 5.92244 19.4816 10.7524 19.4816C15.5824 19.4816 19.5024 15.5516 19.5024 10.7316C19.5024 5.91163 15.5824 1.98163 10.7524 1.98163Z" fill="black" fill-opacity="0.2"/>
<path d="M10.7524 20.9816C5.10244 20.9816 0.502441 16.3816 0.502441 10.7316C0.502441 5.08163 5.10244 0.481628 10.7524 0.481628C16.4024 0.481628 21.0024 5.08163 21.0024 10.7316C21.0024 16.3816 16.4024 20.9816 10.7524 20.9816ZM10.7524 1.98163C5.92244 1.98163 2.00244 5.91163 2.00244 10.7316C2.00244 15.5516 5.92244 19.4816 10.7524 19.4816C15.5824 19.4816 19.5024 15.5516 19.5024 10.7316C19.5024 5.91163 15.5824 1.98163 10.7524 1.98163Z" fill="black" fill-opacity="0.2"/>
<path d="M10.7524 20.9816C5.10244 20.9816 0.502441 16.3816 0.502441 10.7316C0.502441 5.08163 5.10244 0.481628 10.7524 0.481628C16.4024 0.481628 21.0024 5.08163 21.0024 10.7316C21.0024 16.3816 16.4024 20.9816 10.7524 20.9816ZM10.7524 1.98163C5.92244 1.98163 2.00244 5.91163 2.00244 10.7316C2.00244 15.5516 5.92244 19.4816 10.7524 19.4816C15.5824 19.4816 19.5024 15.5516 19.5024 10.7316C19.5024 5.91163 15.5824 1.98163 10.7524 1.98163Z" fill="black" fill-opacity="0.2"/>
<path d="M21.2524 21.9816C21.0624 21.9816 20.8724 21.9116 20.7224 21.7616L18.7224 19.7616C18.4324 19.4716 18.4324 18.9916 18.7224 18.7016C19.0124 18.4116 19.4924 18.4116 19.7824 18.7016L21.7824 20.7016C22.0724 20.9916 22.0724 21.4716 21.7824 21.7616C21.6324 21.9116 21.4424 21.9816 21.2524 21.9816Z" fill="#333333"/>
<path d="M21.2524 21.9816C21.0624 21.9816 20.8724 21.9116 20.7224 21.7616L18.7224 19.7616C18.4324 19.4716 18.4324 18.9916 18.7224 18.7016C19.0124 18.4116 19.4924 18.4116 19.7824 18.7016L21.7824 20.7016C22.0724 20.9916 22.0724 21.4716 21.7824 21.7616C21.6324 21.9116 21.4424 21.9816 21.2524 21.9816Z" fill="black" fill-opacity="0.2"/>
<path d="M21.2524 21.9816C21.0624 21.9816 20.8724 21.9116 20.7224 21.7616L18.7224 19.7616C18.4324 19.4716 18.4324 18.9916 18.7224 18.7016C19.0124 18.4116 19.4924 18.4116 19.7824 18.7016L21.7824 20.7016C22.0724 20.9916 22.0724 21.4716 21.7824 21.7616C21.6324 21.9116 21.4424 21.9816 21.2524 21.9816Z" fill="black" fill-opacity="0.2"/>
<path d="M21.2524 21.9816C21.0624 21.9816 20.8724 21.9116 20.7224 21.7616L18.7224 19.7616C18.4324 19.4716 18.4324 18.9916 18.7224 18.7016C19.0124 18.4116 19.4924 18.4116 19.7824 18.7016L21.7824 20.7016C22.0724 20.9916 22.0724 21.4716 21.7824 21.7616C21.6324 21.9116 21.4424 21.9816 21.2524 21.9816Z" fill="black" fill-opacity="0.2"/>
</svg>
