<svg width="160" height="26" viewBox="0 0 160 26" fill="none" xmlns="http://www.w3.org/2000/svg">
<path d="M12.1556 1.6145C12.4325 0.762287 13.6381 0.762291 13.915 1.6145L16.3581 9.13353C16.4819 9.51465 16.8371 9.77269 17.2378 9.77269H25.1438C26.0399 9.77269 26.4124 10.9193 25.6875 11.446L19.2914 16.093C18.9672 16.3286 18.8316 16.7461 18.9554 17.1272L21.3985 24.6463C21.6754 25.4985 20.7 26.2071 19.975 25.6804L13.579 21.0334C13.2548 20.7979 12.8158 20.7979 12.4916 21.0334L6.09551 25.6804C5.37058 26.2071 4.39519 25.4985 4.67209 24.6463L7.11517 17.1272C7.239 16.7461 7.10334 16.3286 6.77914 16.093L0.383071 11.446C-0.341864 10.9193 0.0307058 9.77269 0.926775 9.77269H8.83275C9.23348 9.77269 9.58864 9.51465 9.71247 9.13353L12.1556 1.6145Z" fill="#FDAF3B"/>
<path d="M45.6056 1.6145C45.8825 0.762287 47.0881 0.762291 47.365 1.6145L49.8081 9.13353C49.9319 9.51465 50.2871 9.77269 50.6878 9.77269H58.5938C59.4899 9.77269 59.8624 10.9193 59.1375 11.446L52.7414 16.093C52.4172 16.3286 52.2816 16.7461 52.4054 17.1272L54.8485 24.6463C55.1254 25.4985 54.15 26.2071 53.425 25.6804L47.029 21.0334C46.7048 20.7979 46.2658 20.7979 45.9416 21.0334L39.5455 25.6804C38.8206 26.2071 37.8452 25.4985 38.1221 24.6463L40.5652 17.1272C40.689 16.7461 40.5533 16.3286 40.2291 16.093L33.8331 11.446C33.1081 10.9193 33.4807 9.77269 34.3768 9.77269H42.2827C42.6835 9.77269 43.0386 9.51465 43.1625 9.13353L45.6056 1.6145Z" fill="#FDAF3B"/>
<path d="M79.0556 1.6145C79.3325 0.762287 80.5381 0.762291 80.815 1.6145L83.2581 9.13353C83.3819 9.51465 83.7371 9.77269 84.1378 9.77269H92.0438C92.9398 9.77269 93.3124 10.9193 92.5875 11.446L86.1914 16.093C85.8672 16.3286 85.7316 16.7461 85.8554 17.1272L88.2985 24.6463C88.5754 25.4985 87.6 26.2071 86.8751 25.6804L80.479 21.0334C80.1548 20.7979 79.7158 20.7979 79.3916 21.0334L72.9955 25.6804C72.2706 26.2071 71.2952 25.4985 71.5721 24.6463L74.0152 17.1272C74.139 16.7461 74.0033 16.3286 73.6791 16.093L67.2831 11.446C66.5581 10.9193 66.9307 9.77269 67.8268 9.77269H75.7327C76.1335 9.77269 76.4886 9.51465 76.6125 9.13353L79.0556 1.6145Z" fill="#FDAF3B"/>
<path d="M112.506 1.6145C112.782 0.762287 113.988 0.762291 114.265 1.6145L116.708 9.13353C116.832 9.51465 117.187 9.77269 117.588 9.77269H125.494C126.39 9.77269 126.762 10.9193 126.037 11.446L119.641 16.093C119.317 16.3286 119.182 16.7461 119.305 17.1272L121.748 24.6463C122.025 25.4985 121.05 26.2071 120.325 25.6804L113.929 21.0334C113.605 20.7979 113.166 20.7979 112.842 21.0334L106.446 25.6804C105.721 26.2071 104.745 25.4985 105.022 24.6463L107.465 17.1272C107.589 16.7461 107.453 16.3286 107.129 16.093L100.733 11.446C100.008 10.9193 100.381 9.77269 101.277 9.77269H109.183C109.583 9.77269 109.939 9.51465 110.062 9.13353L112.506 1.6145Z" fill="#FDAF3B"/>
<path d="M145.956 1.6145C146.232 0.762287 147.438 0.762291 147.715 1.6145L150.158 9.13353C150.282 9.51465 150.637 9.77269 151.038 9.77269H158.944C159.84 9.77269 160.212 10.9193 159.487 11.446L153.091 16.093C152.767 16.3286 152.632 16.7461 152.755 17.1272L155.198 24.6463C155.475 25.4985 154.5 26.2071 153.775 25.6804L147.379 21.0334C147.055 20.7979 146.616 20.7979 146.292 21.0334L139.896 25.6804C139.171 26.2071 138.195 25.4985 138.472 24.6463L140.915 17.1272C141.039 16.7461 140.903 16.3286 140.579 16.093L134.183 11.446C133.458 10.9193 133.831 9.77269 134.727 9.77269H142.633C143.033 9.77269 143.389 9.51465 143.512 9.13353L145.956 1.6145Z" fill="#FDAF3B"/>
</svg>
