<svg width="33" height="32" viewBox="0 0 33 32" fill="none" xmlns="http://www.w3.org/2000/svg">
<path d="M27.3438 26.4638L19.5188 14.1663L27.24 5.6725C27.4146 5.47566 27.5046 5.21791 27.4905 4.95515C27.4764 4.69239 27.3592 4.44579 27.1645 4.26882C26.9698 4.09185 26.7131 3.99876 26.4502 4.00974C26.1873 4.02073 25.9393 4.1349 25.76 4.3275L18.405 12.4175L13.3438 4.46375C13.2535 4.32169 13.1289 4.20471 12.9814 4.12365C12.8339 4.04258 12.6683 4.00005 12.5 4H6.50001C6.32071 3.99991 6.14468 4.04803 5.99037 4.13932C5.83605 4.23062 5.70911 4.36172 5.62285 4.5189C5.53659 4.67609 5.49418 4.85357 5.50006 5.03278C5.50593 5.21198 5.55988 5.3863 5.65626 5.5375L13.4813 17.8337L5.76001 26.3337C5.66984 26.4306 5.59979 26.5444 5.55393 26.6685C5.50806 26.7927 5.48729 26.9247 5.49282 27.0569C5.49834 27.1891 5.53005 27.3189 5.58611 27.4388C5.64217 27.5586 5.72146 27.6662 5.8194 27.7552C5.91733 27.8442 6.03195 27.9129 6.15662 27.9572C6.28129 28.0016 6.41352 28.0208 6.54566 28.0137C6.6778 28.0066 6.80722 27.9733 6.92641 27.9158C7.0456 27.8583 7.15219 27.7777 7.24001 27.6787L14.595 19.5888L19.6563 27.5425C19.7472 27.6834 19.8722 27.7991 20.0197 27.8791C20.1671 27.959 20.3323 28.0006 20.5 28H26.5C26.6791 27.9999 26.8549 27.9518 27.009 27.8606C27.1632 27.7693 27.29 27.6384 27.3762 27.4814C27.4624 27.3244 27.5049 27.1472 27.4992 26.9681C27.4935 26.7891 27.4398 26.6149 27.3438 26.4638ZM21.0488 26L8.32126 6H11.9463L24.6788 26H21.0488Z" fill="white"/>
</svg>
