<svg width="23" height="24" viewBox="0 0 23 24" fill="none" xmlns="http://www.w3.org/2000/svg">
<path d="M21.5634 12.2237C21.5634 11.3964 21.4949 10.7926 21.3467 10.1665H11.7063V13.9008H17.365C17.2509 14.8288 16.6349 16.2264 15.2658 17.1655L15.2466 17.2905L18.2947 19.6046L18.5059 19.6253C20.4453 17.8699 21.5634 15.2872 21.5634 12.2237Z" fill="#4285F4"/>
<path d="M11.7051 22.0627C14.4774 22.0627 16.8047 21.1682 18.5046 19.6253L15.2646 17.1655C14.3975 17.7581 13.2338 18.1717 11.7051 18.1717C8.98983 18.1717 6.68529 16.4164 5.86379 13.9902L5.74338 14.0003L2.57392 16.4041L2.53247 16.517C4.22094 19.8041 7.68919 22.0627 11.7051 22.0627Z" fill="#34A853"/>
<path d="M5.8655 13.9902C5.64874 13.3641 5.52329 12.6932 5.52329 12C5.52329 11.3068 5.64874 10.636 5.8541 10.0099L5.84836 9.87652L2.63917 7.43408L2.53418 7.48303C1.83827 8.84707 1.43896 10.3788 1.43896 12C1.43896 13.6212 1.83827 15.1529 2.53418 16.5169L5.8655 13.9902Z" fill="#FBBC05"/>
<path d="M11.7051 5.82831C13.6332 5.82831 14.9338 6.64448 15.6753 7.32654L18.5732 4.55375C16.7935 2.93257 14.4774 1.9375 11.7051 1.9375C7.68922 1.9375 4.22095 4.19595 2.53247 7.48301L5.8524 10.0099C6.68532 7.58367 8.98987 5.82831 11.7051 5.82831Z" fill="#EB4335"/>
</svg>
