<svg width="19" height="17" viewBox="0 0 19 17" fill="none" xmlns="http://www.w3.org/2000/svg">
<path d="M17.7811 1.37206L17.0452 0.636116C16.8372 0.428125 16.4532 0.460134 16.2132 0.748079L13.653 3.29205C12.501 2.7961 11.2371 2.5561 9.90903 2.5561C5.9569 2.57204 2.53313 4.87601 0.885009 8.18822C0.788981 8.39621 0.788981 8.65214 0.885009 8.82813C1.65294 10.3961 2.80501 11.6922 4.24502 12.6681L2.14902 14.7961C1.90902 15.0361 1.87701 15.4201 2.03706 15.6281L2.773 16.364C2.98099 16.572 3.36498 16.54 3.60498 16.2521L17.6529 2.20417C17.9569 1.96431 17.9891 1.58007 17.7811 1.37206ZM10.757 6.20395C10.485 6.13993 10.1971 6.05997 9.92504 6.05997C8.56499 6.05997 7.4771 7.148 7.4771 8.5079C7.4771 8.77991 7.54112 9.06786 7.62107 9.33988L6.54896 10.3959C6.229 9.83596 6.05301 9.21186 6.05301 8.50794C6.05301 6.37996 7.76504 4.66794 9.89302 4.66794C10.5971 4.66794 11.221 4.84392 11.781 5.16388L10.757 6.20395Z" fill="#666666" fill-opacity="0.8"/>
<path d="M18.9331 8.18816C18.3732 7.06811 17.6371 6.06018 16.7252 5.24415L13.7492 8.18816V8.50811C13.7492 10.6361 12.0371 12.3481 9.90915 12.3481H9.5892L7.70122 14.2361C8.40528 14.3801 9.14122 14.4761 9.86122 14.4761C13.8133 14.4761 17.2371 12.1721 18.8852 8.84398C19.0292 8.61991 19.0292 8.39617 18.9331 8.18816Z" fill="#666666" fill-opacity="0.8"/>
</svg>
