<svg width="15" height="19" viewBox="0 0 15 19" fill="none" xmlns="http://www.w3.org/2000/svg">
<path d="M7.25012 18.5C7.06012 18.5 6.87012 18.43 6.72012 18.28L0.650117 12.21C0.360117 11.92 0.360117 11.44 0.650117 11.15C0.940117 10.86 1.42012 10.86 1.71012 11.15L7.25012 16.69L12.7901 11.15C13.0801 10.86 13.5601 10.86 13.8501 11.15C14.1401 11.44 14.1401 11.92 13.8501 12.21L7.78012 18.28C7.63012 18.43 7.44012 18.5 7.25012 18.5Z" fill="#292D32"/>
<path d="M7.25012 18.33C6.84012 18.33 6.50012 17.99 6.50012 17.58V0.75C6.50012 0.34 6.84012 0 7.25012 0C7.66012 0 8.00012 0.34 8.00012 0.75V17.58C8.00012 17.99 7.66012 18.33 7.25012 18.33Z" fill="#292D32"/>
</svg>
