<svg width="20" height="14" viewBox="0 0 20 14" fill="none" xmlns="http://www.w3.org/2000/svg">
<path d="M12.3055 13.8187C12.1155 13.8187 11.9255 13.7487 11.7755 13.5987C11.4855 13.3087 11.4855 12.8287 11.7755 12.5387L17.3155 6.99865L11.7755 1.45865C11.4855 1.16865 11.4855 0.688652 11.7755 0.398652C12.0655 0.108652 12.5455 0.108652 12.8355 0.398652L18.9055 6.46865C19.1955 6.75865 19.1955 7.23865 18.9055 7.52865L12.8355 13.5987C12.6855 13.7487 12.4955 13.8187 12.3055 13.8187Z" fill="#292D32"/>
<path d="M18.2055 7.74865H1.37549C0.965488 7.74865 0.625488 7.40865 0.625488 6.99865C0.625488 6.58865 0.965488 6.24865 1.37549 6.24865H18.2055C18.6155 6.24865 18.9555 6.58865 18.9555 6.99865C18.9555 7.40865 18.6155 7.74865 18.2055 7.74865Z" fill="#292D32"/>
</svg>
