<svg width="21" height="22" viewBox="0 0 21 22" fill="none" xmlns="http://www.w3.org/2000/svg">
<path d="M12.7997 21.75H8.03969C4.2597 21.75 1.28969 19.37 0.469687 15.68L0.059714 13.82C-0.220286 12.54 0.509687 11.16 1.71969 10.67L8.64971 7.88999C9.78971 7.43999 11.0497 7.43999 12.1897 7.88999L19.1197 10.67C20.3397 11.16 21.0697 12.54 20.7797 13.82L20.3697 15.68C19.5497 19.37 16.5797 21.75 12.7997 21.75ZM10.4197 9.04996C10.0097 9.04996 9.5997 9.12997 9.1997 9.27997L2.26971 12.06C1.73971 12.27 1.3897 12.94 1.5097 13.49L1.9197 15.35C2.5897 18.37 4.92969 20.24 8.02969 20.24H12.7897C15.8897 20.24 18.2297 18.37 18.8997 15.35L19.3097 13.49C19.4297 12.94 19.0797 12.27 18.5497 12.06L11.6197 9.27997C11.2397 9.12997 10.8297 9.04996 10.4197 9.04996Z" fill="#292D32"/>
<path d="M10.4199 21.75C10.0099 21.75 9.66992 21.41 9.66992 21V9C9.66992 8.59 10.0099 8.25 10.4199 8.25C10.8299 8.25 11.1699 8.59 11.1699 9V21C11.1699 21.41 10.8299 21.75 10.4199 21.75Z" fill="#292D32"/>
<path d="M17.4202 11.55C17.3302 11.55 17.2302 11.53 17.1402 11.5L11.6302 9.29001C10.8502 8.98001 9.99016 8.98001 9.20016 9.29001L3.69016 11.5C3.46016 11.59 3.20017 11.56 2.99017 11.42C2.78017 11.28 2.66016 11.05 2.66016 10.8V7C2.66016 4.93 4.34016 3.25 6.41016 3.25H14.4102C16.4802 3.25 18.1602 4.93 18.1602 7V10.8C18.1602 11.05 18.0402 11.28 17.8302 11.42C17.7102 11.51 17.5702 11.55 17.4202 11.55ZM10.4202 7.54999C11.0202 7.54999 11.6197 7.65999 12.1897 7.88999L16.6702 9.69V7C16.6702 5.76 15.6602 4.75 14.4202 4.75H6.42017C5.18017 4.75 4.17017 5.76 4.17017 7V9.69L8.64971 7.88999C9.21971 7.66999 9.82017 7.54999 10.4202 7.54999Z" fill="#292D32"/>
<path d="M12.9199 4.75H7.91992C7.50992 4.75 7.16992 4.41 7.16992 4V2C7.16992 1.04 7.95992 0.25 8.91992 0.25H11.9199C12.8799 0.25 13.6699 1.04 13.6699 2V4C13.6699 4.41 13.3299 4.75 12.9199 4.75ZM8.66992 3.25H12.1699V2C12.1699 1.86 12.0599 1.75 11.9199 1.75H8.91992C8.77992 1.75 8.66992 1.86 8.66992 2V3.25Z" fill="#292D32"/>
</svg>
