<svg width="21" height="23" viewBox="0 0 21 23" fill="none" xmlns="http://www.w3.org/2000/svg">
<path d="M5.87598 5.25C5.46598 5.25 5.12598 4.91 5.12598 4.5V1.5C5.12598 1.09 5.46598 0.75 5.87598 0.75C6.28598 0.75 6.62598 1.09 6.62598 1.5V4.5C6.62598 4.91 6.28598 5.25 5.87598 5.25Z" fill="#666666"/>
<path d="M13.876 5.25C13.466 5.25 13.126 4.91 13.126 4.5V1.5C13.126 1.09 13.466 0.75 13.876 0.75C14.286 0.75 14.626 1.09 14.626 1.5V4.5C14.626 4.91 14.286 5.25 13.876 5.25Z" fill="#666666"/>
<path d="M16.076 21.65C13.896 21.65 12.126 19.88 12.126 17.7C12.126 15.52 13.896 13.75 16.076 13.75C18.256 13.75 20.026 15.52 20.026 17.7C20.026 19.88 18.256 21.65 16.076 21.65ZM16.076 15.25C14.726 15.25 13.626 16.35 13.626 17.7C13.626 19.05 14.726 20.15 16.076 20.15C17.426 20.15 18.526 19.05 18.526 17.7C18.526 16.35 17.426 15.25 16.076 15.25Z" fill="#666666"/>
<path d="M19.8759 22.25C19.6859 22.25 19.4959 22.18 19.3459 22.03L18.3459 21.03C18.0559 20.74 18.0559 20.26 18.3459 19.97C18.6359 19.68 19.1159 19.68 19.4059 19.97L20.4059 20.97C20.6959 21.26 20.6959 21.74 20.4059 22.03C20.2559 22.18 20.0659 22.25 19.8759 22.25Z" fill="#666666"/>
<path d="M6.37598 14C6.24598 14 6.11597 13.97 5.99597 13.92C5.86597 13.87 5.75597 13.8 5.66597 13.71C5.62597 13.66 5.57597 13.61 5.54597 13.56C5.50597 13.5 5.47598 13.44 5.45598 13.38C5.42598 13.32 5.40598 13.26 5.39598 13.2C5.38598 13.13 5.37598 13.06 5.37598 13C5.37598 12.74 5.48597 12.48 5.66597 12.29C5.75597 12.2 5.86597 12.13 5.99597 12.08C6.35597 11.92 6.80598 12.01 7.08598 12.29C7.26598 12.48 7.37598 12.74 7.37598 13C7.37598 13.06 7.36597 13.13 7.35597 13.2C7.34597 13.26 7.32597 13.32 7.29597 13.38C7.27597 13.44 7.24598 13.5 7.20598 13.56C7.16598 13.61 7.12598 13.66 7.08598 13.71C6.89598 13.89 6.63598 14 6.37598 14Z" fill="#666666"/>
<path d="M9.87598 14C9.61598 14 9.35597 13.89 9.16597 13.71C8.98597 13.52 8.87598 13.27 8.87598 13C8.87598 12.87 8.90598 12.74 8.95598 12.62C9.00598 12.5 9.07597 12.39 9.16597 12.29C9.53597 11.92 10.206 11.92 10.586 12.29C10.766 12.48 10.876 12.74 10.876 13C10.876 13.06 10.866 13.13 10.856 13.2C10.846 13.26 10.826 13.32 10.796 13.38C10.776 13.44 10.746 13.5 10.706 13.56C10.666 13.61 10.626 13.66 10.586 13.71C10.396 13.89 10.136 14 9.87598 14Z" fill="#666666"/>
<path d="M6.37598 17.5C6.11598 17.5 5.85597 17.39 5.66597 17.21C5.48597 17.02 5.37598 16.76 5.37598 16.5C5.37598 16.37 5.40598 16.24 5.45598 16.12C5.50598 15.99 5.57597 15.88 5.66597 15.79C6.03597 15.42 6.71598 15.42 7.08598 15.79C7.26598 15.98 7.37598 16.24 7.37598 16.5C7.37598 16.76 7.26598 17.02 7.08598 17.21C6.89598 17.39 6.63598 17.5 6.37598 17.5Z" fill="#666666"/>
<path d="M18.376 9.33997H1.37598C0.965977 9.33997 0.625977 8.99997 0.625977 8.58997C0.625977 8.17997 0.965977 7.83997 1.37598 7.83997H18.376C18.786 7.83997 19.126 8.17997 19.126 8.58997C19.126 8.99997 18.786 9.33997 18.376 9.33997Z" fill="#666666"/>
<path d="M11.246 22.25H5.87598C2.22598 22.25 0.125977 20.15 0.125977 16.5V8C0.125977 4.35 2.22598 2.25 5.87598 2.25H13.876C17.526 2.25 19.626 4.35 19.626 8V12.5C19.626 12.91 19.286 13.25 18.876 13.25C18.466 13.25 18.126 12.91 18.126 12.5V8C18.126 5.14 16.736 3.75 13.876 3.75H5.87598C3.01598 3.75 1.62598 5.14 1.62598 8V16.5C1.62598 19.36 3.01598 20.75 5.87598 20.75H11.246C11.656 20.75 11.996 21.09 11.996 21.5C11.996 21.91 11.656 22.25 11.246 22.25Z" fill="#666666"/>
</svg>
