<svg width="22" height="22" viewBox="0 0 22 22" fill="none" xmlns="http://www.w3.org/2000/svg">
<path d="M13.75 21.5H7.75C2.32 21.5 0 19.18 0 13.75V7.75C0 2.32 2.32 0 7.75 0H13.75C19.18 0 21.5 2.32 21.5 7.75V13.75C21.5 19.18 19.18 21.5 13.75 21.5ZM7.75 1.5C3.14 1.5 1.5 3.14 1.5 7.75V13.75C1.5 18.36 3.14 20 7.75 20H13.75C18.36 20 20 18.36 20 13.75V7.75C20 3.14 18.36 1.5 13.75 1.5H7.75Z" fill="#292D32"/>
<path d="M12.26 15.28C12.07 15.28 11.88 15.21 11.73 15.06L8.2 11.53C7.91 11.24 7.91 10.76 8.2 10.47L11.73 6.94C12.02 6.65 12.5 6.65 12.79 6.94C13.08 7.23 13.08 7.71 12.79 8L9.79 11L12.79 14C13.08 14.29 13.08 14.77 12.79 15.06C12.65 15.21 12.46 15.28 12.26 15.28Z" fill="#292D32"/>
</svg>
