<svg width="22" height="22" viewBox="0 0 22 22" fill="none" xmlns="http://www.w3.org/2000/svg">
<path d="M13.9973 21.876H7.99731C2.56731 21.876 0.247314 19.556 0.247314 14.126V8.12603C0.247314 2.69603 2.56731 0.376035 7.99731 0.376035H9.99731C10.4073 0.376035 10.7473 0.716035 10.7473 1.12604C10.7473 1.53604 10.4073 1.87604 9.99731 1.87604H7.99731C3.38731 1.87604 1.74731 3.51603 1.74731 8.12603V14.126C1.74731 18.736 3.38731 20.376 7.99731 20.376H13.9973C18.6073 20.376 20.2473 18.736 20.2473 14.126V12.126C20.2473 11.716 20.5873 11.376 20.9973 11.376C21.4073 11.376 21.7473 11.716 21.7473 12.126V14.126C21.7473 19.556 19.4273 21.876 13.9973 21.876Z" fill="#333333"/>
<path d="M7.49731 16.816C6.88731 16.816 6.32731 16.596 5.91731 16.196C5.42731 15.706 5.21731 14.996 5.32731 14.246L5.75731 11.236C5.83731 10.656 6.21731 9.90603 6.62731 9.49603L14.5073 1.61604C16.4973 -0.373965 18.5173 -0.373965 20.5073 1.61604C21.5973 2.70604 22.0873 3.81604 21.9873 4.92604C21.8973 5.82604 21.4173 6.70603 20.5073 7.60603L12.6273 15.486C12.2173 15.896 11.4673 16.276 10.8873 16.356L7.87731 16.786C7.74731 16.816 7.61731 16.816 7.49731 16.816ZM15.5673 2.67604L7.68731 10.556C7.49731 10.746 7.27731 11.186 7.23731 11.446L6.80731 14.456C6.76731 14.746 6.82731 14.986 6.97731 15.136C7.12731 15.286 7.36731 15.346 7.65731 15.306L10.6673 14.876C10.9273 14.836 11.3773 14.616 11.5573 14.426L19.4373 6.54604C20.0873 5.89604 20.4273 5.31604 20.4773 4.77604C20.5373 4.12604 20.1973 3.43604 19.4373 2.66604C17.8373 1.06604 16.7373 1.51604 15.5673 2.67604Z" fill="#333333"/>
<path d="M18.8473 8.95603C18.7773 8.95603 18.7073 8.94604 18.6473 8.92603C16.0173 8.18604 13.9273 6.09604 13.1873 3.46604C13.0773 3.06604 13.3073 2.65603 13.7073 2.53604C14.1073 2.42604 14.5173 2.65603 14.6273 3.05604C15.2273 5.18604 16.9173 6.87604 19.0473 7.47604C19.4473 7.58604 19.6773 8.00603 19.5673 8.40603C19.4773 8.74603 19.1773 8.95603 18.8473 8.95603Z" fill="#333333"/>
</svg>
