<svg width="15" height="22" viewBox="0 0 15 22" fill="none" xmlns="http://www.w3.org/2000/svg">
<path d="M7.75 21.75C3.75 21.75 0.5 18.88 0.5 15.35V11.65C0.5 11.24 0.84 10.9 1.25 10.9C1.66 10.9 2 11.24 2 11.65C2 14.27 4.47 16.25 7.75 16.25C11.03 16.25 13.5 14.27 13.5 11.65C13.5 11.24 13.84 10.9 14.25 10.9C14.66 10.9 15 11.24 15 11.65V15.35C15 18.88 11.75 21.75 7.75 21.75ZM2 15.46C2.07 18.11 4.62 20.25 7.75 20.25C10.88 20.25 13.43 18.11 13.5 15.46C12.2 16.87 10.14 17.75 7.75 17.75C5.36 17.75 3.31 16.87 2 15.46Z" fill="#666666"/>
<path d="M7.75 12.75C4.99 12.75 2.50999 11.51 1.29999 9.51C0.779988 8.66 0.5 7.67 0.5 6.65C0.5 4.93 1.27 3.31 2.66 2.09C4.02 0.9 5.83 0.25 7.75 0.25C9.67 0.25 11.47 0.900002 12.84 2.08C14.23 3.31 15 4.93 15 6.65C15 7.67 14.72 8.65 14.2 9.51C12.99 11.51 10.51 12.75 7.75 12.75ZM7.75 1.75C6.19 1.75 4.73001 2.27 3.64001 3.23C2.58001 4.15 2 5.37 2 6.65C2 7.4 2.19999 8.1 2.57999 8.73C3.52999 10.29 5.51 11.25 7.75 11.25C9.99 11.25 11.97 10.28 12.92 8.73C13.31 8.1 13.5 7.4 13.5 6.65C13.5 5.37 12.92 4.15 11.85 3.21C10.76 2.27 9.31 1.75 7.75 1.75Z" fill="#666666"/>
<path d="M7.75 17.75C3.62 17.75 0.5 15.13 0.5 11.65V6.65C0.5 3.12 3.75 0.25 7.75 0.25C9.67 0.25 11.47 0.900002 12.84 2.08C14.23 3.31 15 4.93 15 6.65V11.65C15 15.13 11.88 17.75 7.75 17.75ZM7.75 1.75C4.58 1.75 2 3.95 2 6.65V11.65C2 14.27 4.47 16.25 7.75 16.25C11.03 16.25 13.5 14.27 13.5 11.65V6.65C13.5 5.37 12.92 4.15 11.85 3.21C10.76 2.27 9.31 1.75 7.75 1.75Z" fill="#666666"/>
</svg>
