<svg width="17" height="17" viewBox="0 0 17 17" fill="none" xmlns="http://www.w3.org/2000/svg">
<path d="M11.3929 16.5C11.2286 16.5 11.0642 16.436 10.9345 16.2989C10.6837 16.0339 10.6837 15.5952 10.9345 15.3302L15.2675 10.7516C15.5183 10.4866 15.9334 10.4866 16.1842 10.7516C16.4351 11.0166 16.4351 11.4553 16.1842 11.7203L11.8513 16.2989C11.7215 16.4269 11.5572 16.5 11.3929 16.5Z" fill="#666666"/>
<path d="M15.7259 11.9123H1.02316C0.668566 11.9123 0.374512 11.6015 0.374512 11.2268C0.374512 10.8521 0.668566 10.5414 1.02316 10.5414H15.7259C16.0805 10.5414 16.3745 10.8521 16.3745 11.2268C16.3745 11.6015 16.0805 11.9123 15.7259 11.9123Z" fill="#666666"/>
<path d="M1.02316 6.44717C0.858836 6.44717 0.694512 6.38319 0.564782 6.24611C0.313971 5.98108 0.313971 5.54241 0.564782 5.27738L4.89776 0.698772C5.14857 0.433743 5.5637 0.433743 5.81451 0.698772C6.06532 0.963801 6.06532 1.40247 5.81451 1.6675L1.48154 6.24611C1.36046 6.37405 1.18748 6.44717 1.02316 6.44717Z" fill="#666666"/>
<path d="M15.7259 6.44717H1.02316C0.668566 6.44717 0.374512 6.13644 0.374512 5.76175C0.374512 5.38705 0.668566 5.07632 1.02316 5.07632H15.7259C16.0805 5.07632 16.3745 5.38705 16.3745 5.76175C16.3745 6.13644 16.0805 6.44717 15.7259 6.44717Z" fill="#666666"/>
</svg>
