<svg width="58" height="63" viewBox="0 0 58 63" fill="none" xmlns="http://www.w3.org/2000/svg">
<path d="M37.9165 34.1249H17.4999C16.304 34.1249 15.3124 33.1333 15.3124 31.9374C15.3124 30.7416 16.304 29.7499 17.4999 29.7499H37.9165C39.1124 29.7499 40.104 30.7416 40.104 31.9374C40.104 33.1333 39.1124 34.1249 37.9165 34.1249Z" fill="#292D32"/>
<path d="M30.2749 45.7915H17.4999C16.304 45.7915 15.3124 44.7999 15.3124 43.604C15.3124 42.4082 16.304 41.4165 17.4999 41.4165H30.2749C31.4707 41.4165 32.4624 42.4082 32.4624 43.604C32.4624 44.7999 31.4707 45.7915 30.2749 45.7915Z" fill="#292D32"/>
<path d="M34.9999 16.0417H23.3332C20.5332 16.0417 15.3124 16.0417 15.3124 8.02083C15.3124 0 20.5332 0 23.3332 0H34.9999C37.7999 0 43.0207 0 43.0207 8.02083C43.0207 10.8208 43.0207 16.0417 34.9999 16.0417ZM23.3332 4.375C20.4457 4.375 19.6874 4.375 19.6874 8.02083C19.6874 11.6667 20.4457 11.6667 23.3332 11.6667H34.9999C38.6457 11.6667 38.6457 10.9083 38.6457 8.02083C38.6457 4.375 37.8874 4.375 34.9999 4.375H23.3332Z" fill="#292D32"/>
<path d="M37.9165 62.7081H20.4165C4.02484 62.7081 0.729004 55.1831 0.729004 43.0206V25.5206C0.729004 12.2206 5.5415 6.53312 17.3832 5.92062C18.5498 5.86229 19.629 6.76645 19.6873 7.99145C19.7457 9.21645 18.8123 10.2081 17.6165 10.2665C9.33317 10.7331 5.104 13.2123 5.104 25.5206V43.0206C5.104 53.8123 7.23317 58.3331 20.4165 58.3331H37.9165C51.0998 58.3331 53.229 53.8123 53.229 43.0206V25.5206C53.229 13.2123 48.9998 10.7331 40.7165 10.2665C39.5207 10.2081 38.5873 9.15812 38.6457 7.96229C38.704 6.76645 39.754 5.83312 40.9498 5.89145C52.7915 6.53312 57.604 12.2206 57.604 25.4915V42.9915C57.604 55.1831 54.3082 62.7081 37.9165 62.7081Z" fill="#292D32"/>
</svg>
