<svg width="64" height="63" viewBox="0 0 64 63" fill="none" xmlns="http://www.w3.org/2000/svg">
<path d="M47.7871 62.7083C44.4913 62.7083 41.0204 61.9208 37.4329 60.4042C33.9329 58.9167 30.4038 56.875 26.9621 54.3958C23.5496 51.8875 20.2538 49.0875 17.1329 46.025C14.0413 42.9042 11.2413 39.6083 8.76211 36.225C6.25378 32.725 4.24128 29.225 2.81211 25.8417C1.29544 22.225 0.537109 18.725 0.537109 15.4292C0.537109 13.1542 0.945443 10.9958 1.73294 8.98333C2.54961 6.9125 3.86211 4.9875 5.64128 3.325C7.88711 1.10833 10.4538 0 13.1954 0C14.3329 0 15.4996 0.2625 16.4913 0.729167C17.6288 1.25417 18.5913 2.04167 19.2913 3.09167L26.0579 12.6292C26.6704 13.475 27.1371 14.2917 27.4579 15.1083C27.8371 15.9833 28.0413 16.8583 28.0413 17.7042C28.0413 18.8125 27.7204 19.8917 27.1079 20.9125C26.6704 21.7 25.9996 22.5458 25.1538 23.3917L23.1704 25.4625C23.1996 25.55 23.2288 25.6083 23.2579 25.6667C23.6079 26.2792 24.3079 27.3292 25.6496 28.9042C27.0788 30.5375 28.4204 32.025 29.7621 33.3958C31.4829 35.0875 32.9121 36.4292 34.2538 37.5375C35.9163 38.9375 36.9954 39.6375 37.6371 39.9583L37.5788 40.1042L39.7079 38.0042C40.6121 37.1 41.4871 36.4292 42.3329 35.9917C43.9371 35 45.9788 34.825 48.0204 35.6708C48.7788 35.9917 49.5954 36.4292 50.4704 37.0417L60.1538 43.925C61.2329 44.6542 62.0204 45.5875 62.4871 46.6958C62.9246 47.8042 63.1288 48.825 63.1288 49.8458C63.1288 51.2458 62.8079 52.6458 62.1954 53.9583C61.5829 55.2708 60.8246 56.4083 59.8621 57.4583C58.1996 59.2958 56.3913 60.6083 54.2913 61.4542C52.2788 62.2708 50.0913 62.7083 47.7871 62.7083ZM13.1954 4.375C11.5913 4.375 10.1038 5.075 8.67461 6.475C7.33294 7.72917 6.39961 9.1 5.81628 10.5875C5.20378 12.1042 4.91211 13.7083 4.91211 15.4292C4.91211 18.1417 5.55378 21.0875 6.83711 24.1208C8.14961 27.2125 9.98711 30.4208 12.3204 33.6292C14.6538 36.8375 17.3079 39.9583 20.2246 42.9042C23.1413 45.7917 26.2913 48.475 29.5288 50.8375C32.6788 53.1417 35.9163 55.0083 39.1246 56.35C44.1121 58.4792 48.7788 58.975 52.6288 57.3708C54.1163 56.7583 55.4288 55.825 56.6246 54.4833C57.2954 53.7542 57.8204 52.9667 58.2579 52.0333C58.6079 51.3042 58.7829 50.5458 58.7829 49.7875C58.7829 49.3208 58.6954 48.8542 58.4621 48.3292C58.3746 48.1542 58.1996 47.8333 57.6454 47.4542L47.9621 40.5708C47.3788 40.1625 46.8538 39.8708 46.3579 39.6667C45.7163 39.4042 45.4538 39.1417 44.4621 39.7542C43.8788 40.0458 43.3538 40.4833 42.7704 41.0667L40.5538 43.2542C39.4163 44.3625 37.6663 44.625 36.3246 44.1292L35.5371 43.7792C34.3413 43.1375 32.9413 42.1458 31.3954 40.8333C29.9954 39.6375 28.4788 38.2375 26.6413 36.4292C25.2121 34.9708 23.7829 33.425 22.2954 31.7042C20.9246 30.1 19.9329 28.7292 19.3204 27.5917L18.9704 26.7167C18.7954 26.0458 18.7371 25.6667 18.7371 25.2583C18.7371 24.2083 19.1163 23.275 19.8454 22.5458L22.0329 20.2708C22.6163 19.6875 23.0538 19.1333 23.3454 18.6375C23.5788 18.2583 23.6663 17.9375 23.6663 17.6458C23.6663 17.4125 23.5788 17.0625 23.4329 16.7125C23.2288 16.2458 22.9079 15.7208 22.4996 15.1667L15.7329 5.6C15.4413 5.19167 15.0913 4.9 14.6538 4.69583C14.1871 4.49167 13.6913 4.375 13.1954 4.375ZM37.5788 40.1333L37.1121 42.1167L37.8996 40.075C37.7538 40.0458 37.6371 40.075 37.5788 40.1333Z" fill="#292D32"/>
</svg>
