<svg width="57" height="63" viewBox="0 0 57 63" fill="none" xmlns="http://www.w3.org/2000/svg">
<path d="M28.5 62.6938C26.4583 62.6938 24.3875 61.9063 22.8417 60.3605L17.8541 55.4313C16.6291 54.2063 14.9375 53.5354 13.2167 53.5354H11C4.9625 53.5354 0.0625 48.6647 0.0625 42.6855V10.8646C0.0625 4.8854 4.9625 0.0146484 11 0.0146484H46C52.0375 0.0146484 56.9375 4.8854 56.9375 10.8646V42.6855C56.9375 48.6647 52.0375 53.5354 46 53.5354H43.7833C42.0625 53.5354 40.3709 54.2355 39.1459 55.4313L34.1583 60.3605C32.6125 61.9063 30.5417 62.6938 28.5 62.6938ZM11 4.36045C7.38333 4.36045 4.4375 7.27703 4.4375 10.8354V42.6563C4.4375 46.2438 7.38333 49.1312 11 49.1312H13.2167C16.1042 49.1312 18.9041 50.298 20.9458 52.3105L25.9333 57.2396C27.3625 58.6396 29.6667 58.6396 31.0959 57.2396L36.0833 52.3105C38.1249 50.298 40.925 49.1312 43.8125 49.1312H46C49.6167 49.1312 52.5625 46.2146 52.5625 42.6563V10.8354C52.5625 7.24787 49.6167 4.36045 46 4.36045H11Z" fill="#292D32"/>
<path d="M28.4998 27.694C23.5415 27.694 19.5164 23.6689 19.5164 18.7106C19.5164 13.7522 23.5415 9.72738 28.4998 9.72738C33.4582 9.72738 37.4832 13.7522 37.4832 18.7106C37.4832 23.6689 33.4582 27.694 28.4998 27.694ZM28.4998 14.1024C25.9623 14.1024 23.8914 16.1731 23.8914 18.7106C23.8914 21.2481 25.9623 23.319 28.4998 23.319C31.0373 23.319 33.1082 21.2481 33.1082 18.7106C33.1082 16.1731 31.0373 14.1024 28.4998 14.1024Z" fill="#292D32"/>
<path d="M40.1667 44.2024C38.9708 44.2024 37.9792 43.2107 37.9792 42.0149C37.9792 37.9899 33.7208 34.6942 28.5 34.6942C23.2792 34.6942 19.0208 37.9899 19.0208 42.0149C19.0208 43.2107 18.0292 44.2024 16.8333 44.2024C15.6375 44.2024 14.6458 43.2107 14.6458 42.0149C14.6458 35.5691 20.8583 30.3192 28.5 30.3192C36.1417 30.3192 42.3542 35.5691 42.3542 42.0149C42.3542 43.2107 41.3625 44.2024 40.1667 44.2024Z" fill="#292D32"/>
</svg>
