<svg width="20" height="22" viewBox="0 0 20 22" fill="none" xmlns="http://www.w3.org/2000/svg">
<path d="M5.75 4.75C5.34 4.75 5 4.41 5 4V1C5 0.59 5.34 0.25 5.75 0.25C6.16 0.25 6.5 0.59 6.5 1V4C6.5 4.41 6.16 4.75 5.75 4.75Z" fill="#292D32"/>
<path d="M13.75 4.75C13.34 4.75 13 4.41 13 4V1C13 0.59 13.34 0.25 13.75 0.25C14.16 0.25 14.5 0.59 14.5 1V4C14.5 4.41 14.16 4.75 13.75 4.75Z" fill="#292D32"/>
<path d="M12.75 12.75H4.75C4.34 12.75 4 12.41 4 12C4 11.59 4.34 11.25 4.75 11.25H12.75C13.16 11.25 13.5 11.59 13.5 12C13.5 12.41 13.16 12.75 12.75 12.75Z" fill="#292D32"/>
<path d="M9.75 16.75H4.75C4.34 16.75 4 16.41 4 16C4 15.59 4.34 15.25 4.75 15.25H9.75C10.16 15.25 10.5 15.59 10.5 16C10.5 16.41 10.16 16.75 9.75 16.75Z" fill="#292D32"/>
<path d="M12.75 21.75H6.75C1.13 21.75 0 19.1 0 14.82V8.65C0 3.91 1.6 1.98 5.71 1.75H13.75C13.76 1.75 13.78 1.75 13.79 1.75C17.9 1.98 19.5 3.91 19.5 8.65V14.82C19.5 19.1 18.37 21.75 12.75 21.75ZM5.75 3.25C2.95 3.41 1.5 4.29 1.5 8.65V14.82C1.5 18.65 2.23 20.25 6.75 20.25H12.75C17.27 20.25 18 18.65 18 14.82V8.65C18 4.3 16.56 3.41 13.73 3.25H5.75Z" fill="#292D32"/>
</svg>
