<svg width="22" height="23" viewBox="0 0 22 23" fill="none" xmlns="http://www.w3.org/2000/svg">
<path d="M6.33002 15.6051C5.97002 15.6051 5.61003 15.5151 5.28003 15.3251C4.61003 14.9451 4.21002 14.2651 4.21002 13.5051V9.93512C4.21002 9.67512 4.04002 9.23514 3.83002 8.98514L1.31 6.33511C0.839998 5.87511 0.5 5.07512 0.5 4.46512V2.91513C0.5 1.70513 1.41998 0.745117 2.59998 0.745117H11.5C12.66 0.745117 13.6 1.68512 13.6 2.84512V4.32513C13.6 5.10513 13.15 5.96512 12.71 6.40512L9.78003 8.99512C9.55003 9.18512 9.35999 9.64514 9.35999 9.98514V12.8851C9.35999 13.5751 8.94001 14.3451 8.39001 14.6751L7.46997 15.2751C7.10997 15.4951 6.72002 15.6051 6.33002 15.6051ZM2.59998 2.25513C2.25998 2.25513 2 2.54514 2 2.92514V4.47513C2 4.64513 2.17001 5.07514 2.39001 5.29514L4.96997 8.00513C5.34997 8.47513 5.71997 9.24512 5.71997 9.93512V13.5051C5.71997 13.8051 5.91003 13.9551 6.03003 14.0151C6.19003 14.1051 6.44998 14.1551 6.66998 14.0151L7.59998 13.4151C7.71998 13.3451 7.85999 13.0651 7.85999 12.8951V9.99512C7.85999 9.20512 8.24999 8.33511 8.79999 7.86511L11.68 5.31512C11.86 5.13512 12.1 4.64513 12.1 4.32513V2.84512C12.1 2.51512 11.83 2.24512 11.5 2.24512H2.59998V2.25513Z" fill="#134074"/>
<path d="M14.25 22.2551H8.25C2.82 22.2551 0.5 19.9351 0.5 14.5051V11.5051C0.5 11.0951 0.84 10.7551 1.25 10.7551C1.66 10.7551 2 11.0951 2 11.5051V14.5051C2 19.1151 3.64 20.7551 8.25 20.7551H14.25C18.86 20.7551 20.5 19.1151 20.5 14.5051V8.50512C20.5 5.60512 19.82 3.9251 18.29 3.0551C18.13 2.9651 17.6 2.72513 16.08 2.48513C15.67 2.42513 15.39 2.03511 15.46 1.62511C15.53 1.21511 15.92 0.935116 16.32 1.00512C17.63 1.21512 18.52 1.45511 19.03 1.74511C21.05 2.89511 22 5.04512 22 8.50512V14.5051C22 19.9351 19.68 22.2551 14.25 22.2551Z" fill="#134074"/>
<path d="M17.25 13.2551H12.25C11.84 13.2551 11.5 12.9151 11.5 12.5051C11.5 12.0951 11.84 11.7551 12.25 11.7551H17.25C17.66 11.7551 18 12.0951 18 12.5051C18 12.9151 17.66 13.2551 17.25 13.2551Z" fill="#134074"/>
<path d="M17.25 17.2551H10.25C9.84 17.2551 9.5 16.9151 9.5 16.5051C9.5 16.0951 9.84 15.7551 10.25 15.7551H17.25C17.66 15.7551 18 16.0951 18 16.5051C18 16.9151 17.66 17.2551 17.25 17.2551Z" fill="#134074"/>
</svg>
